<?xml version="1.0" encoding="UTF-8" standalone="no"?>
<svg xmlns:rdf="http://www.w3.org/1999/02/22-rdf-syntax-ns#" xmlns="http://www.w3.org/2000/svg" xml:space="preserve" height="300" width="500" version="1.1" xmlns:cc="http://creativecommons.org/ns#" xmlns:dc="http://purl.org/dc/elements/1.1/" viewBox="0 0 500 300"><metadata><rdf:RDF><cc:Work rdf:about=""><dc:format>image/svg+xml</dc:format><dc:type rdf:resource="http://purl.org/dc/dcmitype/StillImage"/><dc:title/></cc:Work></rdf:RDF></metadata><g transform="matrix(1.3333 0 0 -1.3333 0 300)"><g transform="scale(.1)"><g stroke="#8f8"><g transform="matrix(1.0004 0 0 .99965 0 -45)"><path stroke-linejoin="round" d="m2068.6 1165.5z" stroke="#8f8" stroke-miterlimit="10" stroke-width="7.5" fill="none"/></g><g transform="matrix(1.0004 0 0 .99965 0 -45)"><path stroke-linejoin="round" d="m2068.6 1211.1-39.35-22.93v-45.01l39.35-22.93 39.35 22.93v45.01z" stroke="#8f8" stroke-miterlimit="10" stroke-width="7.5" fill="none"/></g><g transform="matrix(1.0004 0 0 .99965 0 -45)"><path stroke-linejoin="round" d="m2068.6 1256.4-78.7-45.3v-90.87l78.7-45.3 78.7 45.3v90.87z" stroke="#8f8" stroke-miterlimit="10" stroke-width="7.5" fill="none"/></g><g transform="matrix(1.0004 0 0 .99965 0 -45)"><path stroke-linejoin="round" d="m2068.6 1302-118.05-68.23v-136.17l118.05-68.23 118.06 68.23v136.17z" stroke="#8f8" stroke-miterlimit="10" stroke-width="7.5" fill="none"/></g><g transform="matrix(1.0004 0 0 .99965 0 -45)"><path stroke-linejoin="round" d="m2068.6 1347.3-157.12-90.87v-181.47l157.12-91.157 157.4 91.157v181.47z" stroke="#8f8" stroke-miterlimit="10" stroke-width="7.5" fill="none"/></g><g transform="matrix(1.0004 0 0 .99965 0 -45)"><path stroke-linejoin="round" d="m2068.6 1392.8-196.7-113.5v-227.3l196.7-113.52 197 113.52v227.33z" stroke="#8f8" stroke-miterlimit="10" stroke-width="7.5" fill="none"/></g><g transform="matrix(1.0004 0 0 .99965 0 -45)"><path stroke-linejoin="round" d="m2068.6 1438.4-236.1-136.45v-272.6l236.1-136.5 236.4 136.5v272.63z" stroke="#8f8" stroke-miterlimit="10" stroke-width="7.5" fill="none"/></g><g transform="matrix(1.0004 0 0 .99965 0 -45)"><path stroke-linejoin="round" d="m2068.6 1483.7-275.4-159.1v-317.9l275.45-159.1 275.74 159.1v317.92z" stroke="#8f8" stroke-miterlimit="10" stroke-width="7.5" fill="none"/></g><g transform="matrix(1.0004 0 0 .99965 0 -45)"><path stroke-linejoin="round" d="m2068.6 1529.3-314.8-182.04v-363.53l314.8-181.75 315.09 181.75v363.5z" stroke="#8f8" stroke-miterlimit="10" stroke-width="7.5" fill="none"/></g><g transform="matrix(1.0004 0 0 .99965 0 -45)"><path stroke-linejoin="round" d="m2068.6 1574.9-354.2-204.7v-409.08l354.16-204.68 354.44 204.68v409.08z" stroke="#8f8" stroke-miterlimit="10" stroke-width="7.5" fill="none"/></g><g transform="matrix(1.0004 0 0 .99965 0 -45)"><path stroke-linejoin="round" d="m2068.6 1620.2-393.5-227.4v-454.32l393.51-227.33 393.79 227.33v454.37z" stroke="#8f8" stroke-miterlimit="10" stroke-width="7.5" fill="none"/></g><g transform="matrix(1.0004 0 0 .99965 0 -45)"><path stroke-linejoin="round" d="m2068.6 1665.8-432.8-250.3v-499.67l432.86-250.26 433.14 250.26v499.67z" stroke="#8f8" stroke-miterlimit="10" stroke-width="7.5" fill="none"/></g><g transform="matrix(1.0004 0 0 .99965 0 -45)"><path stroke-linejoin="round" d="m2068.6 1711.1-472.2-272.7v-545.5l472.21-272.91 472.5 272.91v545.53z" stroke="#8f8" stroke-miterlimit="10" stroke-width="7.5" fill="none"/></g><g transform="matrix(1.0004 0 0 .99965 0 -45)"><path stroke-linejoin="round" d="m2068.6 1756.6-511.6-295.5v-590.85l511.56-295.56 511.85 295.56v590.83z" stroke="#8f8" stroke-miterlimit="10" stroke-width="7.5" fill="none"/></g><g transform="matrix(1.0004 0 0 .99965 0 -45)"><path stroke-linejoin="round" d="m2068.6 1802.2-550.9-318.5v-636.1l550.91-318.49 551.2 318.49v636.13z" stroke="#8f8" stroke-miterlimit="10" stroke-width="7.5" fill="none"/></g><g transform="matrix(1.0004 0 0 .99965 0 -45)"><path stroke-linejoin="round" d="m2068.6 1847.5-590.5-340.8v-682.03l590.55-340.85 590.83 340.85v681.99z" stroke="#8f8" stroke-miterlimit="10" stroke-width="7.5" fill="none"/></g><g transform="matrix(1.0004 0 0 .99965 0 -45)"><path stroke-linejoin="round" d="m2068.6 1893.1-629.9-363.78v-727.28l629.9-363.78 630.18 363.78v727.29z" stroke="#8f8" stroke-miterlimit="10" stroke-width="7.5" fill="none"/></g><g transform="matrix(1.0004 0 0 .99965 0 -45)"><path stroke-linejoin="round" d="m2068.6 1938.7-669.2-386.7v-772.63l669.24-386.72 669.53 386.72v772.58z" stroke="#8f8" stroke-miterlimit="10" stroke-width="7.5" fill="none"/></g><g transform="matrix(1.0004 0 0 .99965 0 -45)"><path stroke-linejoin="round" d="m2068.6 1984-708.6-409.09v-818.46l708.6-409.08 708.89 409.08v818.44z" stroke="#8f8" stroke-miterlimit="10" stroke-width="7.5" fill="none"/></g><g transform="matrix(1.0004 0 0 .99965 0 -45)"><path stroke-linejoin="round" d="m2068.6 2029.5-747.9-432v-863.71l747.95-432.01 748.23 432.01v863.74z" stroke="#8f8" stroke-miterlimit="10" stroke-width="7.5" fill="none"/></g><g transform="matrix(1.0004 0 0 .99965 0 -45)"><path stroke-linejoin="round" d="m2068.6 2074.8-787.3-454.66v-908.95l787.3-454.94 787.58 454.94v909.03z" stroke="#8f8" stroke-miterlimit="10" stroke-width="7.5" fill="none"/></g><g transform="matrix(1.0004 0 0 .99965 0 -45)"><path stroke-linejoin="round" d="m2068.6 1711.1-708.6-136.18 236.39-681.98 472.21-272.91 315.09 363.78 236.11 499.96z" stroke="#8f8" stroke-miterlimit="10" stroke-width="7.5" fill="none"/></g><g transform="matrix(1.0004 0 0 .99965 0 -45)"><path stroke-linejoin="round" d="m2068.6 2074.8-787.3-454.66v-908.95l787.3-454.94 787.58 454.94v909.03z" stroke="#8f8" stroke-miterlimit="10" stroke-width="7.5" fill="none"/></g><g transform="matrix(1.0004 0 0 .99965 0 -45)"><path stroke-linejoin="round" d="m2068.6 1165.5v909.32" stroke="#8f8" stroke-miterlimit="10" stroke-width="7.5" fill="none"/></g><g transform="matrix(1.0004 0 0 .99965 0 -45)"><path stroke-linejoin="round" d="m2068.6 1165.5-787.3 454.66" stroke="#8f8" stroke-miterlimit="10" stroke-width="7.5" fill="none"/></g><g transform="matrix(1.0004 0 0 .99965 0 -45)"><path stroke-linejoin="round" d="m2068.6 1165.5-787.3-454.35" stroke="#8f8" stroke-miterlimit="10" stroke-width="7.5" fill="none"/></g><g transform="matrix(1.0004 0 0 .99965 0 -45)"><path stroke-linejoin="round" d="m2068.6 1165.5v-909.3" stroke="#8f8" stroke-miterlimit="10" stroke-width="7.5" fill="none"/></g><g transform="matrix(1.0004 0 0 .99965 0 -45)"><path stroke-linejoin="round" d="m2068.6 1165.5 787.6-454.35" stroke="#8f8" stroke-miterlimit="10" stroke-width="7.5" fill="none"/></g><g transform="matrix(1.0004 0 0 .99965 0 -45)"><path stroke-linejoin="round" d="m2068.6 1165.5 787.58 454.66" stroke="#8f8" stroke-miterlimit="10" stroke-width="7.5" fill="none"/></g><g transform="matrix(1.0004 0 0 .99965 0 -45)"><path stroke-linejoin="round" d="m2068.6 1165.5v909.32" stroke="#8f8" stroke-miterlimit="10" stroke-width="7.5" fill="none"/></g></g><g stroke="#8f8" fill="#99ff67" fill-rule="evenodd"><path d="m1747.6 2095.3v7.64h-7.65v7.36h15.01v-7.36h22.65v15h-30.01v7.36h-7.65v15h7.65v7.36h37.38v-7.36h7.65v-7.36h-15.02v7.36h-22.65v-15h30.02v-7.36h7.65v-15h-7.65v-7.64h-37.38"/><path d="m1822.7 2095.3v30h-15.02v7.36h15.02v15h15v-15h15.02v-7.36h-15.02v-30h-15"/><path d="m1867.4 2140.3v7.36h15.01v-7.36zm22.37 0v7.36h15.01v-7.36zm-22.37-45v7.64h-7.65v7.36h7.65v7.64h30.02v7.36h-30.02v7.36h37.38v-7.36h7.65v-30zm7.37 7.64h22.65v7.36h-22.65v-7.36"/><path d="m1942.5 2125.3h7.36v-7.36h-7.36v-22.64h-15.01v37.36h15.01zm30.02 7.36v-7.36h-22.66v7.36h22.66"/><path d="m1979.8 2095.3v52.36h15.01v-29.72h15.01v7.36h7.65v7.36h15.01v-7.36h-7.65v-7.36h-7.36v-7.64h7.36v-7.36h7.65v-7.64h-15.01v7.64h-7.65v7.36h-15.01v-15h-15.01"/><path d="m2047.2 2095.3v7.64h-7.64v22.36h7.64v7.36h37.39v-7.36h7.64v-15h-37.66v-7.36h30.02v-7.64zm7.37 22.64h22.65v7.36h-22.65v-7.36"/><path d="m2189.7 2095.3v7.64h-7.36v7.36h-7.65v22.36h7.65v7.64h7.36v7.36h15.01v-7.36h-7.36v-7.64h-7.65v-22.36h7.65v-7.36h7.36v-7.64h-15.01"/><path d="m2227.1 2095.3v7.64h15v30h-7.64v7.36h7.64v7.36h15.02v-44.72h15v-7.64h-45.02"/><path d="m2279.5 2095.3v15h7.64v7.64h7.37v7.36h15.01v7.36h7.64v7.64h-22.65v-7.36h-15.01v7.36h7.64v7.36h37.38v-7.36h7.65v-15h-7.65v-7.36h-7.36v-7.64h-15.01v-7.36h30.02v-7.64h-52.67"/><path d="m2347.2 2095.3v7.64h7.36v7.36h7.65v22.36h-7.65v7.64h-7.36v7.36h15.01v-7.36h7.37v-7.64h7.64v-22.36h-7.64v-7.36h-7.37v-7.64h-15.01"/><path d="m463.27 1581.4v7.65h-7.364v7.35h-7.644v22.36h7.644v7.64h7.364v7.36h37.668v-7.36h-30.02v-7.64h-7.648v-22.36h7.648v-7.35h15.008v15h-7.645v7.35h22.657v-30h-37.668"/><path d="m515.94 1581.4v7.65h-7.644v22.35h7.644v7.36h37.383v-7.36h7.649v-15h-37.668v-7.35h30.019v-7.65zm7.364 22.65h22.656v7.35h-22.656v-7.35"/><path d="m568.05 1581.4v7.65h37.668v7.35h-30.02v7.65h-7.648v7.35h7.648v7.36h37.379v-7.36h-30.016v-7.35h30.016v-7.65h7.649v-7.35h-7.649v-7.65h-45.027"/><path d="m635.73 1581.4v7.65h-7.644v22.35h7.644v7.36h45.032v-7.36h-37.668v-22.35h37.668v-7.65h-45.032"/><path d="m688.13 1581.4v52.36h15.008v-15h30.019v-7.36h7.649v-30h-15.012v30h-22.656v-30h-15.008"/><path d="m770.54 1626.4v7.36h15.008v-7.36zm-15.008-45v7.65h15.008v22.35h-7.644v7.36h22.652v-29.71h15.012v-7.65h-45.028"/><path d="m815.57 1581.4v7.65h-7.644v22.35h7.644v7.36h45.032v-7.36h-37.67v-22.35h37.668v-7.65h-45.032"/><path d="m867.96 1581.4v52.36h15.008v-29.71h15.011v7.35h7.645v7.36h15.012v-7.36h-7.649v-7.35h-7.363v-7.65h7.363v-7.35h7.649v-7.65h-15.012v7.65h-7.645v7.35h-15.011v-15h-15.008"/><path d="m1017.8 1581.4v7.65h-7.363v7.35h-7.648v22.36h7.648v7.64h7.363v7.36h15.008v-7.36h-7.363v-7.64h-7.645v-22.36h7.645v-7.35h7.363v-7.65h-15.008"/><path d="m1055.4 1581.4v7.65h15.011v30h-7.648v7.35h7.648v7.36h15.011v-44.71h15.01v-7.65h-45.032"/><path d="m1115.2 1581.4v7.65h-7.65v15h7.65v7.35h-7.65v15h7.65v7.36h30.01v-7.36h7.36v-15h-7.36v-7.35h15.01v-15h-7.65v-7.65zm15 30h15.01v15h-22.65v-7.64h7.64zm-15-22.35h30.01v7.35h-15.01v7.36h-15v-14.71"/><path d="m1175.2 1581.4v7.65h7.36v7.35h7.65v22.36h-7.65v7.64h-7.36v7.36h15.01v-7.36h7.37v-7.64h7.64v-22.36h-7.64v-7.35h-7.37v-7.65h-15.01"/><path d="m208.67 614.11v52.356h15.008v-22.36h7.648v7.36h7.363v7.64h7.645v7.36h15.008v-7.36h-7.645v-7.64h-7.363v-7.36h-7.645v-7.355h7.645v-7.645h7.363v-7.355h7.645v-7.641h-22.653v7.356h-7.363v7.64h-7.648v-14.996h-15.008"/><path d="m276.36 614.11v7.641h-7.648v22.355h7.648v7.36h37.383v-7.36h7.645v-22.355h-7.645v-7.641zm7.364 7.641h22.656v22.355h-22.656v-22.355"/><path d="m328.46 614.11v37.356h45.027v-7.36h7.649v-29.996h-15.012v29.996h-22.656v-29.996h-15.008"/><path d="m388.5 614.11v7.641h37.664v7.355h-30.02v7.645h-7.644v7.355h7.644v7.36h37.383v-7.36h-30.019v-7.355h30.019v-7.645h7.645v-7.355h-7.645v-7.641h-45.027"/><path d="m471.2 614.11v29.996h-15.007v7.36h15.007v15h15.012v-15h15.008v-7.36h-15.008v-29.996h-15.012"/><path d="m530.95 659.11v7.36h15.008v-7.36zm-15.012-44.996v7.641h15.012v22.355h-7.648v7.36h22.656v-29.715h15.012v-7.641h-45.032"/><path d="m590.99 614.11v29.996h-15.01v7.36h15.012v15h15.01v-15h15.008v-7.36h-15.01v-29.996h-15.008"/><path d="m636.02 614.11v7.356h-7.649v30h15.012v-29.715h22.656v29.715h15.008v-37.37h-45.03"/><path d="m710.78 614.11v29.996h-15.012v7.36h15.012v15h15.008v-15h15.012v-7.36h-15.012v-29.996h-15.008"/><path d="m770.82 659.11v7.36h15.008v-7.36zm-15.012-44.996v7.641h15.012v22.355h-7.648v7.36h22.656v-29.715h15.008v-7.641h-45.028"/><path d="m815.85 614.11v7.641h-7.649v22.355h7.649v7.36h37.382v-7.36h7.645v-22.355h-7.645v-7.641zm7.363 7.641h22.656v22.355h-22.656v-22.355"/><path d="m867.96 614.11v37.356h45.027v-7.36h7.649v-29.996h-15.012v29.996h-22.656v-29.996h-15.008"/><path d="m1018.1 614.11v7.641h-7.364v7.355h-7.644v22.36h7.644v7.64h7.364v7.36h15.011v-7.36h-7.363v-7.64h-7.648v-22.36h7.648v-7.355h7.363v-7.641h-15.011"/><path d="m1055.4 614.11v7.641h15.011v29.996h-7.648v7.359h7.648v7.36h15.011v-44.715h15.01v-7.641h-45.032"/><path d="m1107.8 614.11v14.996h7.65v7.645h7.36v7.355h15.01v7.36h7.65v7.64h-22.66v-7.359h-15.01v7.359h7.65v7.36h37.38v-7.36h7.64v-15h-7.64v-7.355h-7.36v-7.645h-15.01v-7.355h30.01v-7.641h-52.67"/><path d="m1175.5 614.11v7.641h7.36v7.355h7.64v22.36h-7.64v7.64h-7.36v7.36h15v-7.36h7.37v-7.64h7.65v-22.36h-7.65v-7.355h-7.37v-7.641h-15"/><path d="m1597.5 99.902v7.6407h15.01v37.355h-15.01v7.3596h45.03v-7.3596h-15.01v-37.36h15.01v-7.6407h-45.03"/><path d="m1649.9 99.902v37.356h45.03v-7.3594h7.65v-29.998h-15.01v29.996h-22.66v-29.998h-15.01"/><path d="m1732.3 99.902v29.996h-15.02v7.3594h15.02v15h15v-15h15.02v-7.3594h-15.02v-29.998h-15"/><path d="m1777.4 99.902v7.6407h-7.64v22.355h7.64v7.3594h37.39v-7.3594h7.64v-14.996h-37.66v-7.3593h30.02v-7.6407zm7.37 22.641h22.65v7.3554h-22.65v-7.3554"/><path d="m1837.4 99.902v7.6407h15.01v37.355h-7.64v7.3596h22.65v-44.715h15.01v-7.6407h-45.03"/><path d="m1897.2 99.902v7.6407h15.01v37.355h-7.65v7.3596h22.66v-44.715h15.01v-7.6407h-45.03"/><path d="m1972.2 144.9v7.3596h15.01v-7.3596zm-15-44.996v7.6407h15v22.355h-7.64v7.3594h22.65v-29.72h15.01v-7.6407h-45.02"/><path d="m2017.2 92.262v7.6406h30.02v7.3594h-30.02v7.6406h-7.64v14.996h7.64v7.3594h45.03v-37.358h-7.64v-7.6406zm7.37 22.641h22.65v14.996h-22.65v-14.996"/><path d="m2077 99.902v7.6407h-7.65v22.355h7.65v7.3594h37.38v-7.3594h7.65v-14.996h-37.67v-7.3593h30.02v-7.6407zm7.36 22.641h22.66v7.3554h-22.66v-7.3554"/><path d="m2129.4 99.902v37.356h45.03v-7.3594h7.64v-29.998h-15v29.996h-22.66v-29.998h-15.01"/><path d="m2189.4 99.902v7.6407h7.65v7.3593h7.36v7.3555h7.64v7.6406h-22.65v7.3594h52.67v-7.3594h-7.64v-7.6406h-7.36v-7.3555h-7.65v-7.3593h22.65v-7.6407h-52.67"/><path d="m2339.2 99.902v7.6407h-7.36v7.3593h-7.65v22.356h7.65v7.6406h7.36v7.3596h15.01v-7.3596h-7.36v-7.6406h-7.65v-22.356h7.65v-7.3593h7.36v-7.6407h-15.01"/><path d="m2376.9 99.902v7.6407h15.01v29.996h-7.65v7.3593h7.65v7.3596h15.01v-44.715h15.01v-7.6407h-45.03"/><path d="m2429 99.902v15h7.64v7.6407h7.37v7.3554h15.01v7.3594h7.64v7.6406h-22.65v-7.3593h-15.01v7.3593h7.64v7.3596h37.39v-7.3596h7.64v-15h-7.64v-7.3554h-7.37v-7.6407h-15.01v-7.3593h30.02v-7.6407h-52.67"/><path d="m2496.7 99.902v7.6407h7.36v7.3593h7.65v22.356h-7.65v7.6406h-7.36v7.3596h15.01v-7.3596h7.36v-7.6406h7.65v-22.356h-7.65v-7.3593h-7.36v-7.6407h-15.01"/><path d="m2919 614.11v7.641h-7.65v44.715h15.02v-29.715h7.64v29.715h7.36v-29.715h7.65v29.715h15.01v-44.715h-7.65v-7.641h-7.36v7.641h-7.65v7.355h-7.4v-7.355h-7.64v-7.641h-7.37"/><path d="m2979 614.11v7.641h-7.65v22.355h7.65v7.36h37.38v-7.36h7.65v-15h-37.67v-7.355h30.02v-7.641zm7.36 22.641h22.66v7.355h-22.66v-7.355"/><path d="m3053.8 659.11v7.36h15.01v-7.36zm-15-44.996v7.641h15v22.355h-7.64v7.36h22.65v-29.715h15.01v-7.641h-45.02"/><path d="m3091.2 614.11v7.641h37.66v7.355h-30.02v7.645h-7.64v7.355h7.64v7.36h37.38v-7.36h-30.01v-7.355h30.01v-7.645h7.65v-7.355h-7.65v-7.641h-45.02"/><path d="m3151.2 614.11v52.356h15.01v-15h30.02v-7.36h7.65v-29.996h-15.01v29.996h-22.66v-29.996h-15.01"/><path d="m3218.6 614.11v7.641h-7.65v22.355h7.65v7.36h37.4v-7.36h7.64v-15h-37.66v-7.355h30.1v-7.641zm7.36 22.641h22.66v7.355h-22.66v-7.355"/><path d="m3293.7 659.11v7.36h15.01v-7.36zm-15-44.996v7.641h15v22.355h-7.64v7.36h22.65v-29.715h15.01v-7.641h-45.02"/><path d="m3353.7 614.11v29.996h-15.01v7.36h15.01v15h15.01v-15h15.01v-7.36h-15.01v-29.996h-15.01"/><path d="m3480.9 614.11v7.641h-7.36v7.355h-7.65v22.36h7.65v7.64h7.36v7.36h15.01v-7.36h-7.37v-7.64h-7.64v-22.36h7.64v-7.355h7.37v-7.641h-15.01"/><path d="m3518.5 614.11v7.641h-7.64v15h7.64v7.355h-7.64v15h7.64v7.36h30.02v-7.36h7.37v-15h-7.37v-7.355h15.01v-15h-7.64v-7.641zm15.02 29.996h15v15h-22.65v-7.64h7.65zm-15.02-22.355h30.02v7.355h-15v7.36h-15.02v-14.715"/><path d="m3578.3 614.11v7.641h7.36v7.355h7.65v22.36h-7.65v7.64h-7.36v7.36h15.01v-7.36h7.36v-7.64h7.65v-22.36h-7.65v-7.355h-7.36v-7.641h-15.01"/><path d="m2926.4 1581.4v7.65h-7.37v7.35h-7.65v22.36h7.65v7.64h7.37v7.36h30.01v-7.36h7.65v-7.35h-15.01v7.35h-15v-7.35h-7.64v-22.65h7.64v-7.35h15.01v7.35h15.01v-7.35h-7.65v-7.65h-30.01"/><path d="m2971.4 1581.4v52.36h15.01v-15h30.02v-7.36h7.65v-30h-15.01v30h-22.66v-30h-15.01"/><path d="m3038.8 1581.4v7.65h-7.65v7.35h7.65v7.65h30.01v7.35h-30.01v7.36h37.38v-7.36h7.64v-30zm7.36 7.65h22.65v7.35h-22.65v-7.35"/><path d="m3113.8 1611.4h7.37v-7.35h-7.37v-22.65h-15.01v37.36h15.01zm30.02 7.36v-7.36h-22.65v7.36h22.65"/><path d="m3173.9 1626.4v7.36h15.01v-7.36zm-15.01-45v7.65h15.01v22.35h-7.65v7.36h22.66v-29.71h15.01v-7.65h-45.03"/><path d="m3211 1581.4v7.65h37.67v7.35h-30.02v7.65h-7.65v7.35h7.65v7.36h37.4v-7.36h-30.02v-7.35h30v-7.65h7.64v-7.35h-7.6v-7.65h-45.03"/><path d="m3271 1581.4v37.36h45.03v-7.36h7.64v-30h-15.01v30h-7.64v-30h-15.01v30h-7.36v-30h-7.65"/><path d="m3338.7 1581.4v7.65h-7.64v7.35h7.64v7.65h30.02v7.35h-30.02v7.36h37.38v-7.36h7.65v-30zm7.36 7.65h22.66v7.35h-22.66v-7.35"/><path d="m3480.9 1581.4v7.65h-7.36v7.35h-7.65v22.36h7.65v7.64h7.36v7.36h15.01v-7.36h-7.37v-7.64h-7.64v-22.36h7.64v-7.35h7.37v-7.65h-15.01"/><path d="m3518.5 1581.4v7.65h15.02v30h-7.65v7.35h7.65v7.36h15v-44.71h15.01v-7.65h-45.03"/><path d="m3600.6 1581.4v15h-30.02v15h7.65v7.36h7.36v7.64h7.65v7.36h22.37v-29.71h7.65v-7.65h-7.65v-15zm-15.01 22.65h15.01v14.71h-7.36v-7.36h-7.65v-7.35"/><path d="m3638.3 1581.4v7.65h7.36v7.35h7.65v22.36h-7.65v7.64h-7.36v7.36h15.01v-7.36h7.36v-7.64h7.65v-22.36h-7.65v-7.35h-7.36v-7.65h-15.01"/></g><path opacity=".8" d="m2069.3 1665.4-708.85-136.12 236.47-681.75 472.38-272.81 315.2 363.66 236.19 499.77-551.39 227.25" fill-rule="evenodd" fill="#8f8"/></g></g></svg>
