<svg xmlns:dc="http://purl.org/dc/elements/1.1/" xmlns:cc="http://creativecommons.org/ns#" xmlns:rdf="http://www.w3.org/1999/02/22-rdf-syntax-ns#" xmlns:svg="http://www.w3.org/2000/svg" xmlns="http://www.w3.org/2000/svg" viewBox="0 0 500 300" height="300" width="500" xml:space="preserve" id="svg2" version="1.1"><metadata id="metadata8"><rdf:RDF><cc:Work rdf:about=""><dc:format>image/svg+xml</dc:format><dc:type rdf:resource="http://purl.org/dc/dcmitype/StillImage"/><dc:title/></cc:Work></rdf:RDF></metadata><defs id="defs6"/><g transform="matrix(1.3333333,0,0,-1.3333333,0,300.00001)" id="g10"><g transform="scale(0.1)" id="g12"><g style="stroke:#88ff88;stroke-opacity:1" transform="matrix(1.00035,0,0,0.999647,0,-45)" id="g16"><path id="path18" style="fill:none;stroke:#88ff88;stroke-width:7.50001097;stroke-linecap:butt;stroke-linejoin:round;stroke-miterlimit:10;stroke-dasharray:none;stroke-opacity:1" d="M 2068.61,1165.52 Z"/></g><g style="stroke:#88ff88;stroke-opacity:1" transform="matrix(1.00035,0,0,0.999647,0,-45)" id="g20"><path id="path22" style="fill:none;stroke:#88ff88;stroke-width:7.50001097;stroke-linecap:butt;stroke-linejoin:round;stroke-miterlimit:10;stroke-dasharray:none;stroke-opacity:1" d="m 2068.61,1211.1 -39.35,-22.93 v -45.01 l 39.35,-22.93 39.35,22.93 v 45.01 z"/></g><g style="stroke:#88ff88;stroke-opacity:1" transform="matrix(1.00035,0,0,0.999647,0,-45)" id="g24"><path id="path26" style="fill:none;stroke:#88ff88;stroke-width:7.50001097;stroke-linecap:butt;stroke-linejoin:round;stroke-miterlimit:10;stroke-dasharray:none;stroke-opacity:1" d="m 2068.61,1256.4 -78.7,-45.3 v -90.87 l 78.7,-45.3 78.7,45.3 v 90.87 z"/></g><g style="stroke:#88ff88;stroke-opacity:1" transform="matrix(1.00035,0,0,0.999647,0,-45)" id="g28"><path id="path30" style="fill:none;stroke:#88ff88;stroke-width:7.50001097;stroke-linecap:butt;stroke-linejoin:round;stroke-miterlimit:10;stroke-dasharray:none;stroke-opacity:1" d="m 2068.61,1301.98 -118.05,-68.23 v -136.17 l 118.05,-68.23 118.06,68.23 v 136.17 z"/></g><g style="stroke:#88ff88;stroke-opacity:1" transform="matrix(1.00035,0,0,0.999647,0,-45)" id="g32"><path id="path34" style="fill:none;stroke:#88ff88;stroke-width:7.50001097;stroke-linecap:butt;stroke-linejoin:round;stroke-miterlimit:10;stroke-dasharray:none;stroke-opacity:1" d="m 2068.61,1347.27 -157.12,-90.87 v -181.47 l 157.12,-91.157 157.4,91.157 v 181.47 z"/></g><g style="stroke:#88ff88;stroke-opacity:1" transform="matrix(1.00035,0,0,0.999647,0,-45)" id="g36"><path id="path38" style="fill:none;stroke:#88ff88;stroke-width:7.50001097;stroke-linecap:butt;stroke-linejoin:round;stroke-miterlimit:10;stroke-dasharray:none;stroke-opacity:1" d="M 2068.61,1392.85 1871.86,1279.33 V 1052 L 2068.61,938.476 2265.65,1052 v 227.33 z"/></g><g style="stroke:#88ff88;stroke-opacity:1" transform="matrix(1.00035,0,0,0.999647,0,-45)" id="g40"><path id="path42" style="fill:none;stroke:#88ff88;stroke-width:7.50001097;stroke-linecap:butt;stroke-linejoin:round;stroke-miterlimit:10;stroke-dasharray:none;stroke-opacity:1" d="m 2068.61,1438.43 -236.1,-136.45 V 1029.35 L 2068.61,892.897 2305,1029.35 v 272.63 z"/></g><g style="stroke:#88ff88;stroke-opacity:1" transform="matrix(1.00035,0,0,0.999647,0,-45)" id="g44"><path id="path46" style="fill:none;stroke:#88ff88;stroke-width:7.50001097;stroke-linecap:butt;stroke-linejoin:round;stroke-miterlimit:10;stroke-dasharray:none;stroke-opacity:1" d="M 2068.61,1483.73 1793.16,1324.62 V 1006.7 l 275.45,-159.1 275.74,159.1 v 317.92 z"/></g><g style="stroke:#88ff88;stroke-opacity:1" transform="matrix(1.00035,0,0,0.999647,0,-45)" id="g48"><path id="path50" style="fill:none;stroke:#88ff88;stroke-width:7.50001097;stroke-linecap:butt;stroke-linejoin:round;stroke-miterlimit:10;stroke-dasharray:none;stroke-opacity:1" d="m 2068.61,1529.31 -314.8,-182.04 V 983.773 l 314.8,-181.751 315.09,181.751 v 363.497 z"/></g><g style="stroke:#88ff88;stroke-opacity:1" transform="matrix(1.00035,0,0,0.999647,0,-45)" id="g52"><path id="path54" style="fill:none;stroke:#88ff88;stroke-width:7.50001097;stroke-linecap:butt;stroke-linejoin:round;stroke-miterlimit:10;stroke-dasharray:none;stroke-opacity:1" d="M 2068.61,1574.88 1714.45,1370.2 V 961.125 l 354.16,-204.682 354.44,204.682 V 1370.2 Z"/></g><g style="stroke:#88ff88;stroke-opacity:1" transform="matrix(1.00035,0,0,0.999647,0,-45)" id="g56"><path id="path58" style="fill:none;stroke:#88ff88;stroke-width:7.50001097;stroke-linecap:butt;stroke-linejoin:round;stroke-miterlimit:10;stroke-dasharray:none;stroke-opacity:1" d="M 2068.61,1620.18 1675.1,1392.85 V 938.476 l 393.51,-227.33 393.79,227.33 v 454.374 z"/></g><g style="stroke:#88ff88;stroke-opacity:1" transform="matrix(1.00035,0,0,0.999647,0,-45)" id="g60"><path id="path62" style="fill:none;stroke:#88ff88;stroke-width:7.50001097;stroke-linecap:butt;stroke-linejoin:round;stroke-miterlimit:10;stroke-dasharray:none;stroke-opacity:1" d="M 2068.61,1665.76 1635.75,1415.5 V 915.827 l 432.86,-250.26 433.14,250.26 V 1415.5 Z"/></g><g style="stroke:#88ff88;stroke-opacity:1" transform="matrix(1.00035,0,0,0.999647,0,-45)" id="g64"><path id="path66" style="fill:none;stroke:#88ff88;stroke-width:7.50001097;stroke-linecap:butt;stroke-linejoin:round;stroke-miterlimit:10;stroke-dasharray:none;stroke-opacity:1" d="M 2068.61,1711.06 1596.4,1438.43 V 892.897 l 472.21,-272.908 472.5,272.908 v 545.533 z"/></g><g style="stroke:#88ff88;stroke-opacity:1" transform="matrix(1.00035,0,0,0.999647,0,-45)" id="g68"><path id="path70" style="fill:none;stroke:#88ff88;stroke-width:7.50001097;stroke-linecap:butt;stroke-linejoin:round;stroke-miterlimit:10;stroke-dasharray:none;stroke-opacity:1" d="M 2068.61,1756.64 1557.05,1461.08 V 870.249 l 511.56,-295.558 511.85,295.558 v 590.831 z"/></g><g style="stroke:#88ff88;stroke-opacity:1" transform="matrix(1.00035,0,0,0.999647,0,-45)" id="g72"><path id="path74" style="fill:none;stroke:#88ff88;stroke-width:7.50001097;stroke-linecap:butt;stroke-linejoin:round;stroke-miterlimit:10;stroke-dasharray:none;stroke-opacity:1" d="M 2068.61,1802.21 1517.7,1483.73 V 847.6 l 550.91,-318.487 551.2,318.487 v 636.13 z"/></g><g style="stroke:#88ff88;stroke-opacity:1" transform="matrix(1.00035,0,0,0.999647,0,-45)" id="g76"><path id="path78" style="fill:none;stroke:#88ff88;stroke-width:7.50001097;stroke-linecap:butt;stroke-linejoin:round;stroke-miterlimit:10;stroke-dasharray:none;stroke-opacity:1" d="M 2068.61,1847.51 1478.06,1506.66 V 824.67 l 590.55,-340.851 590.83,340.851 v 681.99 z"/></g><g style="stroke:#88ff88;stroke-opacity:1" transform="matrix(1.00035,0,0,0.999647,0,-45)" id="g80"><path id="path82" style="fill:none;stroke:#88ff88;stroke-width:7.50001097;stroke-linecap:butt;stroke-linejoin:round;stroke-miterlimit:10;stroke-dasharray:none;stroke-opacity:1" d="m 2068.61,1893.09 -629.9,-363.78 V 802.022 l 629.9,-363.781 630.18,363.781 v 727.288 z"/></g><g style="stroke:#88ff88;stroke-opacity:1" transform="matrix(1.00035,0,0,0.999647,0,-45)" id="g84"><path id="path86" style="fill:none;stroke:#88ff88;stroke-width:7.50001097;stroke-linecap:butt;stroke-linejoin:round;stroke-miterlimit:10;stroke-dasharray:none;stroke-opacity:1" d="M 2068.61,1938.67 1399.37,1551.95 V 779.373 l 669.24,-386.715 669.53,386.715 v 772.577 z"/></g><g style="stroke:#88ff88;stroke-opacity:1" transform="matrix(1.00035,0,0,0.999647,0,-45)" id="g88"><path id="path90" style="fill:none;stroke:#88ff88;stroke-width:7.50001097;stroke-linecap:butt;stroke-linejoin:round;stroke-miterlimit:10;stroke-dasharray:none;stroke-opacity:1" d="m 2068.61,1983.97 -708.6,-409.09 V 756.443 l 708.6,-409.078 708.89,409.078 v 818.437 z"/></g><g style="stroke:#88ff88;stroke-opacity:1" transform="matrix(1.00035,0,0,0.999647,0,-45)" id="g92"><path id="path94" style="fill:none;stroke:#88ff88;stroke-width:7.50001097;stroke-linecap:butt;stroke-linejoin:round;stroke-miterlimit:10;stroke-dasharray:none;stroke-opacity:1" d="M 2068.61,2029.54 1320.66,1597.53 V 733.794 l 747.95,-432.008 748.23,432.008 v 863.736 z"/></g><g style="stroke:#88ff88;stroke-opacity:1" transform="matrix(1.00035,0,0,0.999647,0,-45)" id="g96"><path id="path98" style="fill:none;stroke:#88ff88;stroke-width:7.50001097;stroke-linecap:butt;stroke-linejoin:round;stroke-miterlimit:10;stroke-dasharray:none;stroke-opacity:1" d="m 2068.61,2074.84 -787.3,-454.66 V 711.146 l 787.3,-454.942 787.58,454.942 v 909.034 z"/></g><g style="stroke:#88ff88;stroke-opacity:1" transform="matrix(1.00035,0,0,0.999647,0,-45)" id="g102"><path id="path104" style="fill:none;stroke:#88ff88;stroke-width:7.50001097;stroke-linecap:butt;stroke-linejoin:round;stroke-miterlimit:10;stroke-dasharray:none;stroke-opacity:1" d="m 2068.61,1711.06 -708.6,-136.18 236.39,-681.983 472.21,-272.908 315.09,363.784 236.11,499.957 z"/></g><g style="stroke:#88ff88;stroke-opacity:1" transform="matrix(1.00035,0,0,0.999647,0,-45)" id="g106"><path id="path108" style="fill:none;stroke:#88ff88;stroke-width:7.50001097;stroke-linecap:butt;stroke-linejoin:round;stroke-miterlimit:10;stroke-dasharray:none;stroke-opacity:1" d="m 2068.61,2074.84 -787.3,-454.66 V 711.146 l 787.3,-454.942 787.58,454.942 v 909.034 z"/></g><g style="stroke:#88ff88;stroke-opacity:1" transform="matrix(1.00035,0,0,0.999647,0,-45)" id="g110"><path id="path112" style="fill:none;stroke:#88ff88;stroke-width:7.50001097;stroke-linecap:butt;stroke-linejoin:round;stroke-miterlimit:10;stroke-dasharray:none;stroke-opacity:1" d="m 2068.61,1165.52 v 909.32"/></g><g style="stroke:#88ff88;stroke-opacity:1" transform="matrix(1.00035,0,0,0.999647,0,-45)" id="g114"><path id="path116" style="fill:none;stroke:#88ff88;stroke-width:7.50001097;stroke-linecap:butt;stroke-linejoin:round;stroke-miterlimit:10;stroke-dasharray:none;stroke-opacity:1" d="m 2068.61,1165.52 -787.3,454.66"/></g><g style="stroke:#88ff88;stroke-opacity:1" transform="matrix(1.00035,0,0,0.999647,0,-45)" id="g118"><path id="path120" style="fill:none;stroke:#88ff88;stroke-width:7.50001097;stroke-linecap:butt;stroke-linejoin:round;stroke-miterlimit:10;stroke-dasharray:none;stroke-opacity:1" d="M 2068.61,1165.52 1281.31,711.146"/></g><g style="stroke:#88ff88;stroke-opacity:1" transform="matrix(1.00035,0,0,0.999647,0,-45)" id="g122"><path id="path124" style="fill:none;stroke:#88ff88;stroke-width:7.50001097;stroke-linecap:butt;stroke-linejoin:round;stroke-miterlimit:10;stroke-dasharray:none;stroke-opacity:1" d="M 2068.61,1165.52 V 256.204"/></g><g style="stroke:#88ff88;stroke-opacity:1" transform="matrix(1.00035,0,0,0.999647,0,-45)" id="g126"><path id="path128" style="fill:none;stroke:#88ff88;stroke-width:7.50001097;stroke-linecap:butt;stroke-linejoin:round;stroke-miterlimit:10;stroke-dasharray:none;stroke-opacity:1" d="M 2068.61,1165.52 2856.19,711.146"/></g><g style="stroke:#88ff88;stroke-opacity:1" transform="matrix(1.00035,0,0,0.999647,0,-45)" id="g130"><path id="path132" style="fill:none;stroke:#88ff88;stroke-width:7.50001097;stroke-linecap:butt;stroke-linejoin:round;stroke-miterlimit:10;stroke-dasharray:none;stroke-opacity:1" d="m 2068.61,1165.52 787.58,454.66"/></g><g style="stroke:#88ff88;stroke-opacity:1" transform="matrix(1.00035,0,0,0.999647,0,-45)" id="g134"><path id="path136" style="fill:none;stroke:#88ff88;stroke-width:7.50001097;stroke-linecap:butt;stroke-linejoin:round;stroke-miterlimit:10;stroke-dasharray:none;stroke-opacity:1" d="m 2068.61,1165.52 v 909.32"/></g><path id="path138" style="fill:#99ff67;fill-opacity:1;fill-rule:evenodd;stroke:#88ff88;stroke-opacity:1" d="m 1747.63,2185.32 v 7.64 h -7.65 v 7.36 h 15.01 v -7.36 h 22.65 v 15 h -30.01 v 7.36 h -7.65 v 15 h 7.65 v 7.36 h 37.38 v -7.36 h 7.65 v -7.36 h -15.02 v 7.36 h -22.65 v -15 h 30.02 v -7.36 h 7.65 v -15 h -7.65 v -7.64 h -37.38"/><path id="path140" style="fill:#99ff67;fill-opacity:1;fill-rule:evenodd;stroke:#88ff88;stroke-opacity:1" d="m 1822.68,2185.32 v 30 h -15.02 v 7.36 h 15.02 v 15 h 15 v -15 h 15.02 v -7.36 h -15.02 v -30 h -15"/><path id="path142" style="fill:#99ff67;fill-opacity:1;fill-rule:evenodd;stroke:#88ff88;stroke-opacity:1" d="m 1867.42,2230.32 v 7.36 h 15.01 v -7.36 z m 22.37,0 v 7.36 h 15.01 v -7.36 z m -22.37,-45 v 7.64 h -7.65 v 7.36 h 7.65 v 7.64 h 30.02 v 7.36 h -30.02 v 7.36 h 37.38 v -7.36 h 7.65 v -30 z m 7.37,7.64 h 22.65 v 7.36 h -22.65 v -7.36"/><path id="path144" style="fill:#99ff67;fill-opacity:1;fill-rule:evenodd;stroke:#88ff88;stroke-opacity:1" d="m 1942.47,2215.32 h 7.36 v -7.36 h -7.36 v -22.64 h -15.01 v 37.36 h 15.01 z m 30.02,7.36 v -7.36 h -22.66 v 7.36 h 22.66"/><path id="path146" style="fill:#99ff67;fill-opacity:1;fill-rule:evenodd;stroke:#88ff88;stroke-opacity:1" d="m 1979.85,2185.32 v 52.36 h 15.01 v -29.72 h 15.01 v 7.36 h 7.65 v 7.36 h 15.01 v -7.36 h -7.65 v -7.36 h -7.36 v -7.64 h 7.36 v -7.36 h 7.65 v -7.64 h -15.01 v 7.64 h -7.65 v 7.36 h -15.01 v -15 h -15.01"/><path id="path148" style="fill:#99ff67;fill-opacity:1;fill-rule:evenodd;stroke:#88ff88;stroke-opacity:1" d="m 2047.25,2185.32 v 7.64 h -7.64 v 22.36 h 7.64 v 7.36 h 37.39 v -7.36 h 7.64 v -15 h -37.66 v -7.36 h 30.02 v -7.64 z m 7.37,22.64 h 22.65 v 7.36 h -22.65 v -7.36"/><path id="path150" style="fill:#99ff67;fill-opacity:1;fill-rule:evenodd;stroke:#88ff88;stroke-opacity:1" d="m 2189.7,2185.32 v 7.64 h -7.36 v 7.36 h -7.65 v 22.36 h 7.65 v 7.64 h 7.36 v 7.36 h 15.01 v -7.36 h -7.36 v -7.64 h -7.65 v -22.36 h 7.65 v -7.36 h 7.36 v -7.64 h -15.01"/><path id="path152" style="fill:#99ff67;fill-opacity:1;fill-rule:evenodd;stroke:#88ff88;stroke-opacity:1" d="m 2227.09,2185.32 v 7.64 h 15 v 30 h -7.64 v 7.36 h 7.64 v 7.36 h 15.02 v -44.72 h 15 v -7.64 h -45.02"/><path id="path154" style="fill:#99ff67;fill-opacity:1;fill-rule:evenodd;stroke:#88ff88;stroke-opacity:1" d="m 2279.48,2185.32 v 15 h 7.64 v 7.64 h 7.37 v 7.36 h 15.01 v 7.36 h 7.64 v 7.64 h -22.65 v -7.36 h -15.01 v 7.36 h 7.64 v 7.36 h 37.38 v -7.36 h 7.65 v -15 h -7.65 v -7.36 h -7.36 v -7.64 h -15.01 v -7.36 h 30.02 v -7.64 h -52.67"/><path id="path156" style="fill:#99ff67;fill-opacity:1;fill-rule:evenodd;stroke:#88ff88;stroke-opacity:1" d="m 2347.16,2185.32 v 7.64 h 7.36 v 7.36 h 7.65 v 22.36 h -7.65 v 7.64 h -7.36 v 7.36 h 15.01 v -7.36 h 7.37 v -7.64 h 7.64 v -22.36 h -7.64 v -7.36 h -7.37 v -7.64 h -15.01"/><path id="path158" style="fill:#99ff67;fill-opacity:1;fill-rule:evenodd;stroke:#88ff88;stroke-opacity:1" d="m 388.266,1656.39 v 7.65 h -7.364 v 7.35 h -7.644 v 22.36 h 7.644 v 7.64 h 7.364 v 7.36 h 37.668 v -7.36 h -30.02 v -7.64 h -7.648 v -22.36 h 7.648 v -7.35 h 15.008 v 15 h -7.645 v 7.35 h 22.657 v -30 h -37.668"/><path id="path160" style="fill:#99ff67;fill-opacity:1;fill-rule:evenodd;stroke:#88ff88;stroke-opacity:1" d="m 440.941,1656.39 v 7.65 h -7.644 v 22.35 h 7.644 v 7.36 h 37.383 v -7.36 h 7.649 v -15 h -37.668 v -7.35 h 30.019 v -7.65 z m 7.364,22.65 h 22.656 v 7.35 h -22.656 v -7.35"/><path id="path162" style="fill:#99ff67;fill-opacity:1;fill-rule:evenodd;stroke:#88ff88;stroke-opacity:1" d="m 493.051,1656.39 v 7.65 h 37.668 v 7.35 h -30.02 v 7.65 h -7.648 v 7.35 h 7.648 v 7.36 h 37.379 v -7.36 h -30.016 v -7.35 h 30.016 v -7.65 h 7.649 v -7.35 h -7.649 v -7.65 h -45.027"/><path id="path164" style="fill:#99ff67;fill-opacity:1;fill-rule:evenodd;stroke:#88ff88;stroke-opacity:1" d="m 560.734,1656.39 v 7.65 h -7.644 v 22.35 h 7.644 v 7.36 h 45.032 v -7.36 h -37.668 v -22.35 h 37.668 v -7.65 h -45.032"/><path id="path166" style="fill:#99ff67;fill-opacity:1;fill-rule:evenodd;stroke:#88ff88;stroke-opacity:1" d="m 613.129,1656.39 v 52.36 h 15.008 v -15 h 30.019 v -7.36 h 7.649 v -30 h -15.012 v 30 h -22.656 v -30 h -15.008"/><path id="path168" style="fill:#99ff67;fill-opacity:1;fill-rule:evenodd;stroke:#88ff88;stroke-opacity:1" d="m 695.539,1701.39 v 7.36 h 15.008 v -7.36 z m -15.008,-45 v 7.65 h 15.008 v 22.35 h -7.644 v 7.36 h 22.652 v -29.71 h 15.012 v -7.65 h -45.028"/><path id="path170" style="fill:#99ff67;fill-opacity:1;fill-rule:evenodd;stroke:#88ff88;stroke-opacity:1" d="m 740.566,1656.39 v 7.65 h -7.644 v 22.35 h 7.644 v 7.36 h 45.032 v -7.36 H 747.93 v -22.35 h 37.668 v -7.65 h -45.032"/><path id="path172" style="fill:#99ff67;fill-opacity:1;fill-rule:evenodd;stroke:#88ff88;stroke-opacity:1" d="m 792.961,1656.39 v 52.36 h 15.008 v -29.71 h 15.011 v 7.35 h 7.645 v 7.36 h 15.012 v -7.36 h -7.649 v -7.35 h -7.363 v -7.65 h 7.363 v -7.35 h 7.649 v -7.65 h -15.012 v 7.65 h -7.645 v 7.35 h -15.011 v -15 h -15.008"/><path id="path174" style="fill:#99ff67;fill-opacity:1;fill-rule:evenodd;stroke:#88ff88;stroke-opacity:1" d="m 942.773,1656.39 v 7.65 h -7.363 v 7.35 h -7.648 v 22.36 h 7.648 v 7.64 h 7.363 v 7.36 h 15.008 v -7.36 h -7.363 v -7.64 h -7.645 v -22.36 h 7.645 v -7.35 h 7.363 v -7.65 h -15.008"/><path id="path176" style="fill:#99ff67;fill-opacity:1;fill-rule:evenodd;stroke:#88ff88;stroke-opacity:1" d="m 980.438,1656.39 v 7.65 h 15.011 v 30 h -7.648 v 7.35 h 7.648 v 7.36 h 15.011 v -44.71 h 15.01 v -7.65 h -45.032"/><path id="path178" style="fill:#99ff67;fill-opacity:1;fill-rule:evenodd;stroke:#88ff88;stroke-opacity:1" d="m 1040.2,1656.39 v 7.65 h -7.65 v 15 h 7.65 v 7.35 h -7.65 v 15 h 7.65 v 7.36 h 30.01 v -7.36 h 7.36 v -15 h -7.36 v -7.35 h 15.01 v -15 h -7.65 v -7.65 z m 15,30 h 15.01 v 15 h -22.65 v -7.64 h 7.64 z m -15,-22.35 h 30.01 v 7.35 h -15.01 v 7.36 h -15 v -14.71"/><path id="path180" style="fill:#99ff67;fill-opacity:1;fill-rule:evenodd;stroke:#88ff88;stroke-opacity:1" d="m 1100.23,1656.39 v 7.65 h 7.36 v 7.35 h 7.65 v 22.36 h -7.65 v 7.64 h -7.36 v 7.36 h 15.01 v -7.36 h 7.37 v -7.64 h 7.64 v -22.36 h -7.64 v -7.35 h -7.37 v -7.65 h -15.01"/><path id="path182" style="fill:#99ff67;fill-opacity:1;fill-rule:evenodd;stroke:#88ff88;stroke-opacity:1" d="m 133.672,539.113 v 52.356 h 15.008 v -22.36 h 7.648 v 7.36 h 7.363 v 7.64 h 7.645 v 7.36 h 15.008 v -7.36 h -7.645 v -7.64 h -7.363 v -7.36 h -7.645 v -7.355 h 7.645 v -7.645 h 7.363 v -7.355 h 7.645 v -7.641 h -22.653 v 7.356 h -7.363 v 7.64 h -7.648 v -14.996 h -15.008"/><path id="path184" style="fill:#99ff67;fill-opacity:1;fill-rule:evenodd;stroke:#88ff88;stroke-opacity:1" d="m 201.355,539.113 v 7.641 h -7.648 v 22.355 h 7.648 v 7.36 h 37.383 v -7.36 h 7.645 v -22.355 h -7.645 v -7.641 z m 7.364,7.641 h 22.656 v 22.355 h -22.656 v -22.355"/><path id="path186" style="fill:#99ff67;fill-opacity:1;fill-rule:evenodd;stroke:#88ff88;stroke-opacity:1" d="m 253.465,539.113 v 37.356 h 45.027 v -7.36 h 7.649 v -29.996 h -15.012 v 29.996 h -22.656 v -29.996 h -15.008"/><path id="path188" style="fill:#99ff67;fill-opacity:1;fill-rule:evenodd;stroke:#88ff88;stroke-opacity:1" d="m 313.504,539.113 v 7.641 h 37.664 v 7.355 h -30.02 v 7.645 h -7.644 v 7.355 h 7.644 v 7.36 h 37.383 v -7.36 h -30.019 v -7.355 h 30.019 v -7.645 h 7.645 v -7.355 h -7.645 v -7.641 h -45.027"/><path id="path190" style="fill:#99ff67;fill-opacity:1;fill-rule:evenodd;stroke:#88ff88;stroke-opacity:1" d="m 396.195,539.113 v 29.996 h -15.007 v 7.36 h 15.007 v 15 h 15.012 v -15 h 15.008 v -7.36 h -15.008 v -29.996 h -15.012"/><path id="path192" style="fill:#99ff67;fill-opacity:1;fill-rule:evenodd;stroke:#88ff88;stroke-opacity:1" d="m 455.953,584.109 v 7.36 h 15.008 v -7.36 z m -15.012,-44.996 v 7.641 h 15.012 v 22.355 h -7.648 v 7.36 h 22.656 v -29.715 h 15.012 v -7.641 h -45.032"/><path id="path194" style="fill:#99ff67;fill-opacity:1;fill-rule:evenodd;stroke:#88ff88;stroke-opacity:1" d="m 515.992,539.113 v 29.996 H 500.98 v 7.36 h 15.012 v 15 H 531 v -15 h 15.008 v -7.36 H 531 v -29.996 h -15.008"/><path id="path196" style="fill:#99ff67;fill-opacity:1;fill-rule:evenodd;stroke:#88ff88;stroke-opacity:1" d="m 561.02,539.113 v 7.356 h -7.649 v 30 h 15.012 v -29.715 h 22.656 v 29.715 h 15.008 V 539.113 H 561.02"/><path id="path198" style="fill:#99ff67;fill-opacity:1;fill-rule:evenodd;stroke:#88ff88;stroke-opacity:1" d="m 635.785,539.113 v 29.996 h -15.012 v 7.36 h 15.012 v 15 h 15.008 v -15 h 15.012 v -7.36 h -15.012 v -29.996 h -15.008"/><path id="path200" style="fill:#99ff67;fill-opacity:1;fill-rule:evenodd;stroke:#88ff88;stroke-opacity:1" d="m 695.824,584.109 v 7.36 h 15.008 v -7.36 z m -15.012,-44.996 v 7.641 h 15.012 v 22.355 h -7.648 v 7.36 h 22.656 v -29.715 h 15.008 v -7.641 h -45.028"/><path id="path202" style="fill:#99ff67;fill-opacity:1;fill-rule:evenodd;stroke:#88ff88;stroke-opacity:1" d="m 740.852,539.113 v 7.641 h -7.649 v 22.355 h 7.649 v 7.36 h 37.382 v -7.36 h 7.645 v -22.355 h -7.645 v -7.641 z m 7.363,7.641 h 22.656 v 22.355 h -22.656 v -22.355"/><path id="path204" style="fill:#99ff67;fill-opacity:1;fill-rule:evenodd;stroke:#88ff88;stroke-opacity:1" d="m 792.961,539.113 v 37.356 h 45.027 v -7.36 h 7.649 v -29.996 h -15.012 v 29.996 h -22.656 v -29.996 h -15.008"/><path id="path206" style="fill:#99ff67;fill-opacity:1;fill-rule:evenodd;stroke:#88ff88;stroke-opacity:1" d="m 943.055,539.113 v 7.641 h -7.364 v 7.355 h -7.644 v 22.36 h 7.644 v 7.64 h 7.364 v 7.36 h 15.011 v -7.36 h -7.363 v -7.64 h -7.648 v -22.36 h 7.648 v -7.355 h 7.363 v -7.641 h -15.011"/><path id="path208" style="fill:#99ff67;fill-opacity:1;fill-rule:evenodd;stroke:#88ff88;stroke-opacity:1" d="m 980.438,539.113 v 7.641 h 15.011 v 29.996 h -7.648 v 7.359 h 7.648 v 7.36 h 15.011 v -44.715 h 15.01 v -7.641 h -45.032"/><path id="path210" style="fill:#99ff67;fill-opacity:1;fill-rule:evenodd;stroke:#88ff88;stroke-opacity:1" d="m 1032.83,539.113 v 14.996 h 7.65 v 7.645 h 7.36 v 7.355 h 15.01 v 7.36 h 7.65 v 7.64 h -22.66 v -7.359 h -15.01 v 7.359 h 7.65 v 7.36 h 37.38 v -7.36 h 7.64 v -15 h -7.64 v -7.355 h -7.36 v -7.645 h -15.01 v -7.355 h 30.01 v -7.641 h -52.67"/><path id="path212" style="fill:#99ff67;fill-opacity:1;fill-rule:evenodd;stroke:#88ff88;stroke-opacity:1" d="m 1100.52,539.113 v 7.641 h 7.36 v 7.355 h 7.64 v 22.36 h -7.64 v 7.64 h -7.36 v 7.36 h 15 v -7.36 h 7.37 v -7.64 h 7.65 v -22.36 h -7.65 v -7.355 h -7.37 v -7.641 h -15"/><path id="path214" style="fill:#99ff67;fill-opacity:1;fill-rule:evenodd;stroke:#88ff88;stroke-opacity:1" d="M 1597.53,9.9022996 V 17.543 h 15.01 v 37.3554 h -15.01 v 7.3596 h 45.03 v -7.3596 h -15.01 V 17.543 h 15.01 V 9.9022996 h -45.03"/><path id="path216" style="fill:#99ff67;fill-opacity:1;fill-rule:evenodd;stroke:#88ff88;stroke-opacity:1" d="M 1649.92,9.9022996 V 47.2578 h 45.03 v -7.3594 h 7.65 V 9.9022996 h -15.01 V 39.8984 h -22.66 V 9.9022996 h -15.01"/><path id="path218" style="fill:#99ff67;fill-opacity:1;fill-rule:evenodd;stroke:#88ff88;stroke-opacity:1" d="M 1732.34,9.9022996 V 39.8984 h -15.02 v 7.3594 h 15.02 V 62.258 h 15 V 47.2578 h 15.02 v -7.3594 h -15.02 V 9.9022996 h -15"/><path id="path220" style="fill:#99ff67;fill-opacity:1;fill-rule:evenodd;stroke:#88ff88;stroke-opacity:1" d="M 1777.36,9.9022996 V 17.543 h -7.64 v 22.3554 h 7.64 v 7.3594 h 37.39 v -7.3594 h 7.64 V 24.9023 h -37.66 V 17.543 h 30.02 V 9.9022996 Z M 1784.73,32.543 h 22.65 v 7.3554 h -22.65 V 32.543"/><path id="path222" style="fill:#99ff67;fill-opacity:1;fill-rule:evenodd;stroke:#88ff88;stroke-opacity:1" d="M 1837.4,9.9022996 V 17.543 h 15.01 v 37.3554 h -7.64 v 7.3596 h 22.65 V 17.543 h 15.01 V 9.9022996 h -45.03"/><path id="path224" style="fill:#99ff67;fill-opacity:1;fill-rule:evenodd;stroke:#88ff88;stroke-opacity:1" d="M 1897.16,9.9022996 V 17.543 h 15.01 v 37.3554 h -7.65 v 7.3596 h 22.66 V 17.543 h 15.01 V 9.9022996 h -45.03"/><path id="path226" style="fill:#99ff67;fill-opacity:1;fill-rule:evenodd;stroke:#88ff88;stroke-opacity:1" d="m 1972.2,54.8984 v 7.3596 h 15.01 v -7.3596 z m -15,-44.9961004 V 17.543 h 15 v 22.3554 h -7.64 v 7.3594 h 22.65 V 17.543 h 15.01 V 9.9022996 h -45.02"/><path id="path228" style="fill:#99ff67;fill-opacity:1;fill-rule:evenodd;stroke:#88ff88;stroke-opacity:1" d="m 2017.23,2.2616996 v 7.6406 h 30.02 V 17.2617 h -30.02 v 7.6406 h -7.64 v 14.9961 h 7.64 v 7.3594 h 45.03 V 9.9022996 h -7.64 v -7.6406 z M 2024.6,24.9023 h 22.65 V 39.8984 H 2024.6 V 24.9023"/><path id="path230" style="fill:#99ff67;fill-opacity:1;fill-rule:evenodd;stroke:#88ff88;stroke-opacity:1" d="M 2076.99,9.9022996 V 17.543 h -7.65 v 22.3554 h 7.65 v 7.3594 h 37.38 v -7.3594 h 7.65 V 24.9023 h -37.67 V 17.543 h 30.02 V 9.9022996 Z M 2084.35,32.543 h 22.66 v 7.3554 h -22.66 V 32.543"/><path id="path232" style="fill:#99ff67;fill-opacity:1;fill-rule:evenodd;stroke:#88ff88;stroke-opacity:1" d="M 2129.38,9.9022996 V 47.2578 h 45.03 v -7.3594 h 7.64 V 9.9022996 h -15 V 39.8984 h -22.66 V 9.9022996 h -15.01"/><path id="path234" style="fill:#99ff67;fill-opacity:1;fill-rule:evenodd;stroke:#88ff88;stroke-opacity:1" d="M 2189.42,9.9022996 V 17.543 h 7.65 v 7.3593 h 7.36 v 7.3555 h 7.64 v 7.6406 h -22.65 v 7.3594 h 52.67 v -7.3594 h -7.64 v -7.6406 h -7.36 v -7.3555 h -7.65 V 17.543 h 22.65 V 9.9022996 h -52.67"/><path id="path236" style="fill:#99ff67;fill-opacity:1;fill-rule:evenodd;stroke:#88ff88;stroke-opacity:1" d="M 2339.23,9.9022996 V 17.543 h -7.36 v 7.3593 h -7.65 v 22.3555 h 7.65 v 7.6406 h 7.36 v 7.3596 h 15.01 v -7.3596 h -7.36 v -7.6406 h -7.65 V 24.9023 h 7.65 V 17.543 h 7.36 V 9.9022996 h -15.01"/><path id="path238" style="fill:#99ff67;fill-opacity:1;fill-rule:evenodd;stroke:#88ff88;stroke-opacity:1" d="M 2376.9,9.9022996 V 17.543 h 15.01 v 29.9961 h -7.65 v 7.3593 h 7.65 v 7.3596 h 15.01 V 17.543 h 15.01 V 9.9022996 h -45.03"/><path id="path240" style="fill:#99ff67;fill-opacity:1;fill-rule:evenodd;stroke:#88ff88;stroke-opacity:1" d="M 2429.01,9.9022996 V 24.9023 h 7.64 v 7.6407 h 7.37 v 7.3554 h 15.01 v 7.3594 h 7.64 v 7.6406 h -22.65 v -7.3593 h -15.01 v 7.3593 h 7.64 v 7.3596 h 37.39 v -7.3596 h 7.64 v -15 h -7.64 V 32.543 h -7.37 v -7.6407 h -15.01 V 17.543 h 30.02 V 9.9022996 h -52.67"/><path id="path242" style="fill:#99ff67;fill-opacity:1;fill-rule:evenodd;stroke:#88ff88;stroke-opacity:1" d="M 2496.69,9.9022996 V 17.543 h 7.36 v 7.3593 h 7.65 v 22.3555 h -7.65 v 7.6406 h -7.36 v 7.3596 h 15.01 v -7.3596 h 7.36 v -7.6406 h 7.65 V 24.9023 h -7.65 V 17.543 h -7.36 V 9.9022996 h -15.01"/><path id="path244" style="fill:#99ff67;fill-opacity:1;fill-rule:evenodd;stroke:#88ff88;stroke-opacity:1" d="m 2993.99,539.113 v 7.641 h -7.65 v 44.715 h 15.02 v -29.715 h 7.64 v 29.715 h 7.36 v -29.715 h 7.65 v 29.715 h 15.01 v -44.715 h -7.65 v -7.641 h -7.36 v 7.641 h -7.65 v 7.355 H 3009 v -7.355 h -7.64 v -7.641 h -7.37"/><path id="path246" style="fill:#99ff67;fill-opacity:1;fill-rule:evenodd;stroke:#88ff88;stroke-opacity:1" d="m 3054.03,539.113 v 7.641 h -7.65 v 22.355 h 7.65 v 7.36 h 37.38 v -7.36 h 7.65 v -15 h -37.67 v -7.355 h 30.02 v -7.641 z m 7.36,22.641 h 22.66 v 7.355 h -22.66 v -7.355"/><path id="path248" style="fill:#99ff67;fill-opacity:1;fill-rule:evenodd;stroke:#88ff88;stroke-opacity:1" d="m 3128.79,584.109 v 7.36 h 15.01 v -7.36 z m -15,-44.996 v 7.641 h 15 v 22.355 h -7.64 v 7.36 h 22.65 v -29.715 h 15.01 v -7.641 h -45.02"/><path id="path250" style="fill:#99ff67;fill-opacity:1;fill-rule:evenodd;stroke:#88ff88;stroke-opacity:1" d="m 3166.18,539.113 v 7.641 h 37.66 v 7.355 h -30.02 v 7.645 h -7.64 v 7.355 h 7.64 v 7.36 h 37.38 v -7.36 h -30.01 v -7.355 h 30.01 v -7.645 h 7.65 v -7.355 h -7.65 v -7.641 h -45.02"/><path id="path252" style="fill:#99ff67;fill-opacity:1;fill-rule:evenodd;stroke:#88ff88;stroke-opacity:1" d="m 3226.21,539.113 v 52.356 h 15.01 v -15 h 30.02 v -7.36 h 7.65 v -29.996 h -15.01 v 29.996 h -22.66 v -29.996 h -15.01"/><path id="path254" style="fill:#99ff67;fill-opacity:1;fill-rule:evenodd;stroke:#88ff88;stroke-opacity:1" d="m 3293.62,539.113 v 7.641 h -7.65 v 22.355 h 7.65 v 7.36 H 3331 v -7.36 h 7.64 v -15 h -37.66 v -7.355 H 3331 v -7.641 z m 7.36,22.641 h 22.66 v 7.355 h -22.66 v -7.355"/><path id="path256" style="fill:#99ff67;fill-opacity:1;fill-rule:evenodd;stroke:#88ff88;stroke-opacity:1" d="m 3368.66,584.109 v 7.36 h 15.01 v -7.36 z m -15,-44.996 v 7.641 h 15 v 22.355 h -7.64 v 7.36 h 22.65 v -29.715 h 15.01 v -7.641 h -45.02"/><path id="path258" style="fill:#99ff67;fill-opacity:1;fill-rule:evenodd;stroke:#88ff88;stroke-opacity:1" d="m 3428.7,539.113 v 29.996 h -15.01 v 7.36 h 15.01 v 15 h 15.01 v -15 h 15.01 v -7.36 h -15.01 v -29.996 h -15.01"/><path id="path260" style="fill:#99ff67;fill-opacity:1;fill-rule:evenodd;stroke:#88ff88;stroke-opacity:1" d="m 3555.86,539.113 v 7.641 h -7.36 v 7.355 h -7.65 v 22.36 h 7.65 v 7.64 h 7.36 v 7.36 h 15.01 v -7.36 h -7.37 v -7.64 h -7.64 v -22.36 h 7.64 v -7.355 h 7.37 v -7.641 h -15.01"/><path id="path262" style="fill:#99ff67;fill-opacity:1;fill-rule:evenodd;stroke:#88ff88;stroke-opacity:1" d="m 3593.52,539.113 v 7.641 h -7.64 v 15 h 7.64 v 7.355 h -7.64 v 15 h 7.64 v 7.36 h 30.02 v -7.36 h 7.37 v -15 h -7.37 v -7.355 h 15.01 v -15 h -7.64 v -7.641 z m 15.02,29.996 h 15 v 15 h -22.65 v -7.64 h 7.65 z m -15.02,-22.355 h 30.02 v 7.355 h -15 v 7.36 h -15.02 v -14.715"/><path id="path264" style="fill:#99ff67;fill-opacity:1;fill-rule:evenodd;stroke:#88ff88;stroke-opacity:1" d="m 3653.28,539.113 v 7.641 h 7.36 v 7.355 h 7.65 v 22.36 h -7.65 v 7.64 h -7.36 v 7.36 h 15.01 v -7.36 h 7.36 v -7.64 h 7.65 v -22.36 h -7.65 v -7.355 h -7.36 v -7.641 h -15.01"/><path id="path266" style="fill:#99ff67;fill-opacity:1;fill-rule:evenodd;stroke:#88ff88;stroke-opacity:1" d="m 3001.36,1656.39 v 7.65 h -7.37 v 7.35 h -7.65 v 22.36 h 7.65 v 7.64 h 7.37 v 7.36 h 30.01 v -7.36 h 7.65 v -7.35 h -15.01 v 7.35 H 3009 v -7.35 h -7.64 v -22.65 h 7.64 v -7.35 h 15.01 v 7.35 h 15.01 v -7.35 h -7.65 v -7.65 h -30.01"/><path id="path268" style="fill:#99ff67;fill-opacity:1;fill-rule:evenodd;stroke:#88ff88;stroke-opacity:1" d="m 3046.38,1656.39 v 52.36 h 15.01 v -15 h 30.02 v -7.36 h 7.65 v -30 h -15.01 v 30 h -22.66 v -30 h -15.01"/><path id="path270" style="fill:#99ff67;fill-opacity:1;fill-rule:evenodd;stroke:#88ff88;stroke-opacity:1" d="m 3113.79,1656.39 v 7.65 h -7.65 v 7.35 h 7.65 v 7.65 h 30.01 v 7.35 h -30.01 v 7.36 h 37.38 v -7.36 h 7.64 v -30 z m 7.36,7.65 h 22.65 v 7.35 h -22.65 v -7.35"/><path id="path272" style="fill:#99ff67;fill-opacity:1;fill-rule:evenodd;stroke:#88ff88;stroke-opacity:1" d="m 3188.83,1686.39 h 7.37 v -7.35 h -7.37 v -22.65 h -15.01 v 37.36 h 15.01 z m 30.02,7.36 v -7.36 h -22.65 v 7.36 h 22.65"/><path id="path274" style="fill:#99ff67;fill-opacity:1;fill-rule:evenodd;stroke:#88ff88;stroke-opacity:1" d="m 3248.87,1701.39 v 7.36 h 15.01 v -7.36 z m -15.01,-45 v 7.65 h 15.01 v 22.35 h -7.65 v 7.36 h 22.66 v -29.71 h 15.01 v -7.65 h -45.03"/><path id="path276" style="fill:#99ff67;fill-opacity:1;fill-rule:evenodd;stroke:#88ff88;stroke-opacity:1" d="m 3285.97,1656.39 v 7.65 h 37.67 v 7.35 h -30.02 v 7.65 h -7.65 v 7.35 h 7.65 v 7.36 H 3331 v -7.36 h -30.02 v -7.35 H 3331 v -7.65 h 7.64 v -7.35 H 3331 v -7.65 h -45.03"/><path id="path278" style="fill:#99ff67;fill-opacity:1;fill-rule:evenodd;stroke:#88ff88;stroke-opacity:1" d="m 3346.01,1656.39 v 37.36 h 45.03 v -7.36 h 7.64 v -30 h -15.01 v 30 h -7.64 v -30 h -15.01 v 30 h -7.36 v -30 h -7.65"/><path id="path280" style="fill:#99ff67;fill-opacity:1;fill-rule:evenodd;stroke:#88ff88;stroke-opacity:1" d="m 3413.69,1656.39 v 7.65 h -7.64 v 7.35 h 7.64 v 7.65 h 30.02 v 7.35 h -30.02 v 7.36 h 37.38 v -7.36 h 7.65 v -30 z m 7.36,7.65 h 22.66 v 7.35 h -22.66 v -7.35"/><path id="path282" style="fill:#99ff67;fill-opacity:1;fill-rule:evenodd;stroke:#88ff88;stroke-opacity:1" d="m 3555.86,1656.39 v 7.65 h -7.36 v 7.35 h -7.65 v 22.36 h 7.65 v 7.64 h 7.36 v 7.36 h 15.01 v -7.36 h -7.37 v -7.64 h -7.64 v -22.36 h 7.64 v -7.35 h 7.37 v -7.65 h -15.01"/><path id="path284" style="fill:#99ff67;fill-opacity:1;fill-rule:evenodd;stroke:#88ff88;stroke-opacity:1" d="m 3593.52,1656.39 v 7.65 h 15.02 v 30 h -7.65 v 7.35 h 7.65 v 7.36 h 15 v -44.71 h 15.01 v -7.65 h -45.03"/><path id="path286" style="fill:#99ff67;fill-opacity:1;fill-rule:evenodd;stroke:#88ff88;stroke-opacity:1" d="m 3675.65,1656.39 v 15 h -30.02 v 15 h 7.65 v 7.36 h 7.36 v 7.64 h 7.65 v 7.36 h 22.37 v -29.71 h 7.65 v -7.65 h -7.65 v -15 z m -15.01,22.65 h 15.01 v 14.71 h -7.36 v -7.36 h -7.65 v -7.35"/><path id="path288" style="fill:#99ff67;fill-opacity:1;fill-rule:evenodd;stroke:#88ff88;stroke-opacity:1" d="m 3713.32,1656.39 v 7.65 h 7.36 v 7.35 h 7.65 v 22.36 h -7.65 v 7.64 h -7.36 v 7.36 h 15.01 v -7.36 h 7.36 v -7.64 h 7.65 v -22.36 h -7.65 v -7.35 h -7.36 v -7.65 h -15.01"/><path id="path100" style="opacity: 0.6;fill:#88ff88;fill-opacity:1;fill-rule:evenodd;stroke:none;stroke-opacity:1;" d="m 2069.34,1665.45 -708.85,-136.12 236.47,-681.748 472.38,-272.812 315.2,363.656 236.19,499.774 -551.39,227.25"/></g></g></svg>
