<?xml version="1.0" encoding="UTF-8" standalone="no"?>
<svg xmlns:rdf="http://www.w3.org/1999/02/22-rdf-syntax-ns#" xmlns="http://www.w3.org/2000/svg" xmlns:osb="http://www.openswatchbook.org/uri/2009/osb" xml:space="preserve" height="310.67" viewBox="0 0 520 310.66666" width="520" version="1.1" xmlns:cc="http://creativecommons.org/ns#" xmlns:dc="http://purl.org/dc/elements/1.1/"><metadata><rdf:RDF><cc:Work rdf:about=""><dc:format>image/svg+xml</dc:format><dc:type rdf:resource="http://purl.org/dc/dcmitype/StillImage"/><dc:title/></cc:Work></rdf:RDF></metadata><g transform="matrix(1.3333 0 0 -1.3333 0 310.67)"><g opacity=".97" transform="scale(.1)" stroke="#8f8"><g stroke-opacity=".96875" fill="none"><g transform="scale(1.0004 .99965)"><path stroke-linejoin="round" d="m1978.9 1165.2z" stroke-opacity=".96875" stroke="#8f8" stroke-miterlimit="10" stroke-width="7.5" fill="none"/></g><g transform="scale(1.0004 .99965)"><path stroke-linejoin="round" d="m1978.9 1208.6-37.09-21.52v-43.03l37.09-21.52 37.09 21.52v43.03z" stroke-opacity=".96875" stroke="#8f8" stroke-miterlimit="10" stroke-width="7.5" fill="none"/></g><g transform="scale(1.0004 .99965)"><path stroke-linejoin="round" d="m1978.9 1251.6-74.46-43.03v-86.07l74.46-43.03 74.46 43.03v86.07z" stroke-opacity=".96875" stroke="#8f8" stroke-miterlimit="10" stroke-width="7.5" fill="none"/></g><g transform="scale(1.0004 .99965)"><path stroke-linejoin="round" d="m1978.9 1294.6-111.83-64.55v-129.1l111.83-64.54 111.83 64.54v129.1z" stroke-opacity=".96875" stroke="#8f8" stroke-miterlimit="10" stroke-width="7.5" fill="none"/></g><g transform="scale(1.0004 .99965)"><path stroke-linejoin="round" d="m1978.9 1337.6-148.91-86.06v-172.13l148.91-86.062 148.91 86.062v172.13z" stroke-opacity=".96875" stroke="#8f8" stroke-miterlimit="10" stroke-width="7.5" fill="none"/></g><g transform="scale(1.0004 .99965)"><path stroke-linejoin="round" d="m1978.9 1380.7-186.3-107.6v-215.16l186.28-107.57 186.28 107.57v215.16z" stroke-opacity=".96875" stroke="#8f8" stroke-miterlimit="10" stroke-width="7.5" fill="none"/></g><g transform="scale(1.0004 .99965)"><path stroke-linejoin="round" d="m1978.9 1423.7-223.65-129.09v-258.19l223.65-129.09 223.65 129.09v258.19z" stroke-opacity=".96875" stroke="#8f8" stroke-miterlimit="10" stroke-width="7.5" fill="none"/></g><g transform="scale(1.0004 .99965)"><path stroke-linejoin="round" d="m1978.9 1466.7-260.73-150.61v-301.22l260.73-150.6 260.73 150.6v301.22z" stroke-opacity=".96875" stroke="#8f8" stroke-miterlimit="10" stroke-width="7.5" fill="none"/></g><g transform="scale(1.0004 .99965)"><path stroke-linejoin="round" d="m1978.9 1509.8-298.1-172.12v-344.3l298.1-172.12 298.1 172.12v344.25z" stroke-opacity=".96875" stroke="#8f8" stroke-miterlimit="10" stroke-width="7.5" fill="none"/></g><g transform="scale(1.0004 .99965)"><path stroke-linejoin="round" d="m1978.9 1552.8-335.5-193.6v-387.32l335.47-193.64 335.47 193.64v387.28z" stroke-opacity=".96875" stroke="#8f8" stroke-miterlimit="10" stroke-width="7.5" fill="none"/></g><g transform="scale(1.0004 .99965)"><path stroke-linejoin="round" d="m1978.9 1595.8-372.6-215.1v-430.33l372.56-215.15 372.56 215.15v430.31z" stroke-opacity=".96875" stroke="#8f8" stroke-miterlimit="10" stroke-width="7.5" fill="none"/></g><g transform="scale(1.0004 .99965)"><path stroke-linejoin="round" d="m1978.9 1638.9-410-236.7v-473.35l409.93-236.67 409.93 236.67v473.34z" stroke-opacity=".96875" stroke="#8f8" stroke-miterlimit="10" stroke-width="7.5" fill="none"/></g><g transform="scale(1.0004 .99965)"><path stroke-linejoin="round" d="m1978.9 1681.9-447.3-258.19v-516.36l447.3-258.19 447.3 258.19v516.37z" stroke-opacity=".96875" stroke="#8f8" stroke-miterlimit="10" stroke-width="7.5" fill="none"/></g><g transform="scale(1.0004 .99965)"><path stroke-linejoin="round" d="m1978.9 1724.9-484.39-279.7v-559.38l484.39-279.7 484.38 279.7v559.41z" stroke-opacity=".96875" stroke="#8f8" stroke-miterlimit="10" stroke-width="7.5" fill="none"/></g><g transform="scale(1.0004 .99965)"><path stroke-linejoin="round" d="m1978.9 1768-521.8-301.3v-602.4l521.76-301.22 521.75 301.22v602.44z" stroke-opacity=".96875" stroke="#8f8" stroke-miterlimit="10" stroke-width="7.5" fill="none"/></g><g transform="scale(1.0004 .99965)"><path stroke-linejoin="round" d="m1978.9 1811-559.1-322.7v-645.51l559.12-322.74 559.12 322.74v645.47z" stroke-opacity=".96875" stroke="#8f8" stroke-miterlimit="10" stroke-width="7.5" fill="none"/></g><g transform="scale(1.0004 .99965)"><path stroke-linejoin="round" d="m1978.9 1854-596.2-344.2v-688.53l596.21-344.25 596.21 344.25v688.5z" stroke-opacity=".96875" stroke="#8f8" stroke-miterlimit="10" stroke-width="7.5" fill="none"/></g><g transform="scale(1.0004 .99965)"><path stroke-linejoin="round" d="m1978.9 1897-633.6-365.7v-731.54l633.3-365.77 633.86 365.77v731.53z" stroke-opacity=".96875" stroke="#8f8" stroke-miterlimit="10" stroke-width="7.5" fill="none"/></g><g transform="scale(1.0004 .99965)"><path stroke-linejoin="round" d="m1978.9 1940.1-671-387.3v-774.56l670.67-387.28 671.22 387.28v774.56z" stroke-opacity=".96875" stroke="#8f8" stroke-miterlimit="10" stroke-width="7.5" fill="none"/></g><g transform="scale(1.0004 .99965)"><path stroke-linejoin="round" d="m1978.9 1983.1-708.1-408.8v-817.57l707.75-408.8 708.31 408.8v817.59z" stroke-opacity=".96875" stroke="#8f8" stroke-miterlimit="10" stroke-width="7.5" fill="none"/></g><g transform="scale(1.0004 .99965)"><path stroke-linejoin="round" d="m1978.9 2026.2-745.4-430.32v-860.69l745.12-430.6 745.68 430.6v860.62z" stroke-opacity=".96875" stroke="#8f8" stroke-miterlimit="10" stroke-width="7.5" fill="none"/></g></g><g stroke-linejoin="round" style="paint-order:normal" fill-opacity=".53333" transform="scale(1.0004 .99965)" stroke-linecap="square" stroke-width="11.25" fill="#8f8"><path stroke-linejoin="round" style="paint-order:normal" d="m1978.9 1681.9-670.95-129.1 223.65-645.46 447.3-86.062 447.3 86.062 74.45 559.4z" fill-opacity=".53333" stroke="#8f8" stroke-linecap="square" stroke-width="11.25" fill="#8f8"/></g><g stroke-opacity=".96875" fill="none"><g transform="scale(1.0004 .99965)"><path stroke-linejoin="round" d="m1978.9 2026.2-745.4-430.32v-860.69l745.12-430.6 745.68 430.6v860.62z" stroke-opacity=".96875" stroke="#8f8" stroke-miterlimit="10" stroke-width="7.5" fill="none"/></g><g transform="scale(1.0004 .99965)"><path stroke-linejoin="round" d="m1978.9 1165.2v860.91" stroke-opacity=".96875" stroke="#8f8" stroke-miterlimit="10" stroke-width="7.5" fill="none"/></g><g transform="scale(1.0004 .99965)"><path stroke-linejoin="round" d="m1978.9 1165.2-745.4 430.59" stroke-opacity=".96875" stroke="#8f8" stroke-miterlimit="10" stroke-width="7.5" fill="none"/></g><g transform="scale(1.0004 .99965)"><path stroke-linejoin="round" d="m1978.9 1165.2-745.4-429.99" stroke-opacity=".96875" stroke="#8f8" stroke-miterlimit="10" stroke-width="7.5" fill="none"/></g><g transform="scale(1.0004 .99965)"><path stroke-linejoin="round" d="m1978.9 1165.2-0.28-860.62" stroke-opacity=".96875" stroke="#8f8" stroke-miterlimit="10" stroke-width="7.5" fill="none"/></g><g transform="scale(1.0004 .99965)"><path stroke-linejoin="round" d="m1978.9 1165.2 745.4-430.03" stroke-opacity=".96875" stroke="#8f8" stroke-miterlimit="10" stroke-width="7.5" fill="none"/></g><g transform="scale(1.0004 .99965)"><path stroke-linejoin="round" d="m1978.9 1165.2 745.4 430.59" stroke-opacity=".96875" stroke="#8f8" stroke-miterlimit="10" stroke-width="7.5" fill="none"/></g><g transform="scale(1.0004 .99965)"><path stroke-linejoin="round" d="m1978.9 1165.2v860.91" stroke-opacity=".96875" stroke="#8f8" stroke-miterlimit="10" stroke-width="7.5" fill="none"/></g></g><g fill="#8f8" stroke-opacity=".96875" fill-rule="evenodd"><path d="m1657.8 2106.6v7.64h-7.64v7.35h15v-7.35h22.66v15h-30.02v7.35h-7.64v15h7.64v7.36h37.38v-7.36h7.65v-7.35h-15.01v7.35h-22.66v-15h30.02v-7.35h7.65v-15h-7.65v-7.64h-37.38"/><path d="m1732.9 2106.6v29.99h-15.01v7.36h15.01v15h15.01v-15h15.01v-7.36h-15.01v-29.99h-15.01"/><path d="m1777.6 2151.6v7.36h15.02v-7.36zm22.38 0v7.36h15.01v-7.36zm-22.38-44.99v7.64h-7.6v7.35h7.64v7.65h30.02v7.35h-30.02v7.36h37.39v-7.36h7.65v-29.99zm7.37 7.64h22.65v7.35h-22.65v-7.35"/><path d="m1852.7 2136.6h7.36v-7.35h-7.36v-22.64h-15.02v37.4h15.02zm30.01 7.36v-7.36h-22.65v7.36h22.65"/><path d="m1890.1 2106.6v52.4h15.01v-29.71h15.01v7.35h7.64v7.36h15.01v-7.36h-7.64v-7.35h-7.37v-7.65h7.37v-7.35h7.64v-7.64h-15.01v7.64h-7.64v7.35h-15.01v-14.99h-15.01"/><path d="m1957.5 2106.6v7.64h-7.65v22.35h7.65v7.36h37.38v-7.36h7.65v-15h-37.67v-7.35h30.02v-7.64zm7.36 22.64h22.66v7.35h-22.66v-7.35"/><path d="m2099.9 2106.6v7.64h-7.36v7.35h-7.65v22.4h7.65v7.64h7.36v7.36h15.01v-7.36h-7.37v-7.6h-7.64v-22.36h7.64v-7.35h7.37v-7.64h-15.01"/><path d="m2137.3 2106.6v7.64h15.01v30h-7.65v7.35h7.65v7.36h15.01v-44.71h15.01v-7.64h-45.03"/><path d="m2189.7 2106.6v14.99h7.65v7.65h7.36v7.35h15.01v7.36h7.65v7.64h-22.66v-7.35h-15.01v7.35h7.65v7.36h37.38v-7.36h7.65v-15h-7.65v-7.35h-7.36v-7.65h-15.01v-7.35h30.02v-7.64h-52.68"/><path d="m2257.4 2106.6v7.64h7.36v7.35h7.65v22.4h-7.65v7.64h-7.36v7.36h15.01v-7.36h7.36v-7.6h7.65v-22.36h-7.65v-7.35h-7.36v-7.64h-15.01"/><path d="m415.41 1602.1v7.64h-7.363v7.36h-7.645v22.35h7.645v7.64h7.363v7.36h37.664v-7.36h-30.015v-7.64h-7.649v-22.35h7.649v-7.36h15.007v15h-7.648v7.35h22.656v-29.99h-37.664"/><path d="m468.08 1602.1v7.64h-7.648v22.35h7.648v7.36h37.383v-7.36h7.644v-14.99h-37.664v-7.36h30.02v-7.64zm7.363 22.64h22.657v7.35h-22.657v-7.35"/><path d="m520.19 1602.1v7.64h37.664v7.36h-30.019v7.64h-7.645v7.35h7.645v7.36h37.383v-7.36h-30.02v-7.35h30.02v-7.64h7.648v-7.36h-7.648v-7.64h-45.028"/><path d="m587.88 1602.1v7.64h-7.645v22.35h7.645v7.36h45.027v-7.36h-37.664v-22.35h37.664v-7.64h-45.027"/><path d="m640.27 1602.1v52.35h15.011v-15h30.02v-7.36h7.644v-29.99h-15.007v29.99h-22.657v-29.99h-15.011"/><path d="m722.68 1647v7.36h15.008v-7.36zm-15.012-44.99v7.64h15.012v22.35h-7.649v7.36h22.657v-29.71h15.011v-7.64h-45.031"/><path d="m767.71 1602.1v7.64h-7.645v22.35h7.645v7.36h45.027v-7.36h-37.66v-22.35h37.664v-7.64h-45.027"/><path d="m820.1 1602.1v52.35h15.011v-29.71h15.008v7.35h7.649v7.36h15.007v-7.36h-7.644v-7.35h-7.363v-7.64h7.363v-7.36h7.644v-7.64h-15.007v7.64h-7.649v7.36h-15.008v-15h-15.011"/><path d="m969.91 1602.1v7.64h-7.363v7.36h-7.645v22.35h7.645v7.64h7.363v7.36h15.012v-7.36h-7.363v-7.64h-7.649v-22.35h7.649v-7.36h7.363v-7.64h-15"/><path d="m1007.6 1602.1v7.64h15.008v30h-7.645v7.35h7.645v7.36h15.012v-44.71h15.007v-7.64h-45.027"/><path d="m1067.3 1602.1v7.64h-7.644v15h7.644v7.35h-7.644v15h7.644v7.36h30.018v-7.36h7.36v-15h-7.36v-7.35h15.01v-15h-7.65v-7.64zm15.008 29.99h15.01v15h-22.655v-7.64h7.645zm-15.008-22.35h30.018v7.36h-15.01v7.35h-15.008v-14.71"/><path d="m1127.4 1602.1v7.64h7.36v7.36h7.65v22.35h-7.65v7.64h-7.36v7.36h15.01v-7.36h7.36v-7.64h7.65v-22.35h-7.65v-7.36h-7.36v-7.64h-15.01"/><path d="m160.81 683.17v52.355h15.01v-22.359h7.645v7.359h7.363v7.641h7.649v7.359h15.007v-7.359h-7.644v-7.641h-7.363v-7.359h-7.649v-7.355h7.649v-7.641h7.363v-7.359h7.644v-7.641h-22.656v7.355h-7.363v7.645h-7.645v-15h-15.011"/><path d="m228.5 683.17v7.641h-7.648v22.355h7.648v7.359h37.379v-7.359h7.648v-22.355h-7.648v-7.641zm7.363 7.641h22.653v22.355h-22.653v-22.355"/><path d="m280.6 683.17v37.355h45.031v-7.359h7.644v-29.99h-15v29.996h-22.657v-29.996h-15.011"/><path d="m340.64 683.17v7.641h37.668v7.359h-30.02v7.641h-7.648v7.355h7.648v7.359h37.383v-7.359h-30.02v-7.355h30.02v-7.641h7.644v-7.359h-7.644v-7.641h-45.031"/><path d="m423.34 683.17v29.996h-15.008v7.359h15.008v15h15.008v-15h15.011v-7.359h-15.011v-29.996h-15.008"/><path d="m483.09 728.16v7.359h15.012v-7.359zm-15.008-44.996v7.641h15.008v22.355h-7.645v7.359h22.657v-29.714h15.007v-7.641h-45.027"/><path d="m543.13 683.17v29.996h-15.008v7.359h15.008v15h15.012v-15h15.007v-7.359h-15.007v-29.996h-15.012"/><path d="m588.16 683.17v7.355h-7.648v30h15.011v-29.714h22.653v29.714h15.012v-37.35h-45.02"/><path d="m662.92 683.17v29.996h-15.008v7.359h15.008v15h15.012v-15h15.007v-7.359h-15.007v-29.996h-15.012"/><path d="m722.96 728.16v7.359h15.012v-7.359zm-15.008-44.996v7.641h15.008v22.355h-7.645v7.359h22.657v-29.714h15.007v-7.641h-45.027"/><path d="m767.99 683.17v7.641h-7.648v22.355h7.648v7.359h37.379v-7.359h7.649v-22.355h-7.649v-7.641zm7.363 7.641h22.653v22.355h-22.653v-22.355"/><path d="m820.1 683.17v37.355h45.031v-7.359h7.644v-29.996h-15.007v29.996h-22.657v-29.996h-15.011"/><path d="m970.2 683.17v7.641h-7.363v7.359h-7.644v22.355h7.644v7.641h7.363v7.359h15.008v-7.359h-7.363v-7.641h-7.645v-22.355h7.645v-7.359h7.363v-7.641h-15.008"/><path d="m1007.6 683.17v7.641h15.008v29.996h-7.645v7.359h7.645v7.359h15.012v-44.714h15.007v-7.641h-45.027"/><path d="m1060 683.17v15h7.648v7.641h7.363v7.355h15.01v7.359h7.65v7.641h-22.66v-7.359h-15.011v7.359h7.648v7.359h37.5v-7.359h7.64v-15h-7.6v-7.355h-7.36v-7.641h-15.02v-7.359h30.02v-7.641h-52.671"/><path d="m1127.7 683.17v7.641h7.36v7.359h7.64v22.355h-7.64v7.641h-7.36v7.359h15v-7.359h7.37v-7.641h7.64v-22.355h-7.64v-7.359h-7.37v-7.641h-15"/><path d="m1627.6 178.3v7.641h-7.65v44.71h15.01v-29.714h7.65v29.714h7.36v-29.714h7.65v29.714h15.01v-44.71h-7.65v-7.641h-7.36v7.641h-7.65v7.355h-7.36v-7.355h-7.65v-7.641h-7.36"/><path d="m1687.6 178.3v7.641h-7.65v22.355h7.65v7.359h37.38v-7.359h7.65v-15h-37.67v-7.355h30.02v-7.641zm7.36 22.637h22.66v7.359h-22.66v-7.359"/><path d="m1762.4 223.29v7.355h15v-7.355zm-15.02-44.996v7.641h15.02v22.355h-7.65v7.359h22.65v-29.714h15.01v-7.641h-45.03"/><path d="m1799.7 178.3v7.641h37.67v7.355h-30.02v7.641h-7.65v7.359h7.65v7.359h37.39v-7.359h-30.02v-7.359h30.02v-7.641h7.64v-7.355h-7.64v-7.641h-45.04"/><path d="m1859.8 178.3v52.351h15.02v-14.996h30.01v-7.359h7.65v-29.996h-15.01v29.996h-22.65v-29.996h-15.02"/><path d="m1927.2 178.3v7.641h-7.65v22.355h7.65v7.359h37.38v-7.359h7.64v-15h-37.66v-7.355h30.02v-7.641zm7.36 22.637h22.66v7.359h-22.66v-7.359"/><path d="m2002.2 223.29v7.355h15.01v-7.355zm-15.01-44.996v7.641h15.01v22.355h-7.64v7.359h22.65v-29.714h15.01v-7.641h-45.03"/><path d="m2062.3 178.3v29.996h-15.01v7.359h15.01v14.996h15.01v-14.996h15.01v-7.359h-15.01v-29.996h-15.01"/><path d="m2189.4 178.3v7.641h-7.37v7.355h-7.64v22.359h7.64v7.641h7.37v7.355h15.01v-7.355h-7.36v-7.641h-7.65v-22.359h7.65v-7.355h7.36v-7.641h-15.01"/><path d="m2227.1 178.3v7.641h-7.65v14.996h7.65v7.359h-7.65v15h7.65v7.355h30.02v-7.355h7.36v-15h-7.36v-7.359h15v-14.996h-7.64v-7.641zm15 29.996h15.02v15h-22.66v-7.641h7.64zm-15-22.355h30.02v7.355h-15.02v7.359h-15v-14.714"/><path d="m2286.8 178.3v7.641h7.36v7.355h7.65v22.359h-7.65v7.641h-7.36v7.355h15.01v-7.355h7.36v-7.641h7.65v-22.359h-7.65v-7.355h-7.36v-7.641h-15.01"/><path d="m2787 683.17v7.641h15.01v37.355h-15.01v7.359h45.03v-7.359h-15.01v-37.355h15.01v-7.641h-45.03"/><path d="m2839.4 683.17v37.355h45.03v-7.359h7.65v-29.996h-15.01v29.996h-22.66v-29.996h-15.01"/><path d="m2921.8 683.17v29.996h-15.01v7.359h15.01v15h15.01v-15h15.01v-7.359h-15.01v-29.996h-15.01"/><path d="m2966.8 683.17v7.641h-7.65v22.355h7.65v7.359h37.38v-7.359h7.65v-14.996h-37.67v-7.359h30.02v-7.641zm7.36 22.641h22.66v7.355h-22.66v-7.355"/><path d="m3026.9 683.17v7.641h15.01v37.355h-7.65v7.359h22.66v-44.714h15.01v-7.641h-45.03"/><path d="m3086.6 683.17v7.641h15.02v37.355h-7.65v7.359h22.65v-44.714h15.01v-7.641h-45.03"/><path d="m3161.7 728.16v7.359h15.01v-7.359zm-15.01-44.996v7.641h15.01v22.355h-7.64v7.359h22.65v-29.714h15.01v-7.641h-45.03"/><path d="m3206.7 675.53v7.641h30.02v7.355h-30.02v7.645h-7.65v14.996h7.65v7.359h45.03v-37.355h-7.64v-7.641zm7.37 22.641h22.65v14.996h-22.65v-14.996"/><path d="m3266.5 683.17v7.641h-7.65v22.355h7.65v7.359h37.38v-7.359h7.64v-14.996h-37.66v-7.359h30.02v-7.641zm7.36 22.641h22.66v7.355h-22.66v-7.355"/><path d="m3318.9 683.17v37.355h45.03v-7.359h7.64v-29.996h-15v29.996h-22.66v-29.996h-15.01"/><path d="m3378.9 683.17v7.641h7.64v7.359h7.37v7.355h7.64v7.641h-22.65v7.359h52.67v-7.359h-7.64v-7.641h-7.37v-7.355h-7.64v-7.359h22.65v-7.641h-52.67"/><path d="m3528.7 683.17v7.641h-7.36v7.359h-7.65v22.355h7.65v7.641h7.36v7.359h15.01v-7.359h-7.36v-7.641h-7.65v-22.355h7.65v-7.359h7.36v-7.641h-15.01"/><path d="m3566.4 683.17v7.641h15v29.996h-7.64v7.359h7.64v7.359h15.02v-44.714h15v-7.641h-45.02"/><path d="m3618.5 683.17v15h7.64v7.641h7.36v7.355h15.02v7.359h7.64v7.641h-22.66v-7.359h-15v7.359h7.64v7.359h37.38v-7.359h7.65v-15h-7.65v-7.355h-7.36v-7.641h-15.01v-7.359h30.02v-7.641h-52.67"/><path d="m3686.2 683.17v7.641h7.36v7.359h7.65v22.355h-7.65v7.641h-7.36v7.359h15.01v-7.359h7.36v-7.641h7.65v-22.355h-7.65v-7.359h-7.36v-7.641h-15.01"/><path d="m2794.1 1602.1v7.64h-7.37v7.36h-7.64v22.35h7.64v7.64h7.37v7.36h30.02v-7.36h7.65v-7.35h-15.02v7.35h-15v-7.35h-7.65v-22.64h7.65v-7.36h15v7.36h15.02v-7.36h-7.65v-7.64h-30.02"/><path d="m2839.1 1602.1v52.35h15.01v-15h30.02v-7.36h7.64v-29.99h-15.01v29.99h-22.65v-29.99h-15.01"/><path d="m2906.5 1602.1v7.64h-7.65v7.36h7.65v7.64h30.02v7.35h-30.02v7.36h37.38v-7.36h7.65v-29.99zm7.36 7.64h22.66v7.36h-22.66v-7.36"/><path d="m2981.6 1632h7.36v-7.35h-7.36v-22.64h-15.01v37.35h15.01zm30.02 7.36v-7.36h-22.66v7.36h22.66"/><path d="m3041.6 1647v7.36h15v-7.36zm-15.01-44.99v7.64h15.01v22.35h-7.65v7.36h22.65v-29.71h15.02v-7.64h-45.03"/><path d="m3078.7 1602.1v7.64h37.67v7.36h-30.02v7.64h-7.65v7.35h7.65v7.36h37.38v-7.36h-30.01v-7.35h30.01v-7.64h7.65v-7.36h-7.65v-7.64h-45.03"/><path d="m3138.8 1602.1v37.35h45.03v-7.36h7.65v-29.99h-15.01v29.99h-7.65v-29.99h-15.01v29.99h-7.36v-29.99h-7.65"/><path d="m3206.4 1602.1v7.64h-7.65v7.36h7.65v7.64h30.02v7.35h-30.02v7.36h37.38v-7.36h7.65v-29.99zm7.36 7.64h22.66v7.36h-22.66v-7.36"/><path d="m3348.6 1602.1v7.64h-7.37v7.36h-7.65v22.35h7.65v7.64h7.37v7.36h15v-7.36h-7.36v-7.64h-7.64v-22.35h7.64v-7.36h7.36v-7.64h-15"/><path d="m3386.3 1602.1v7.64h15.01v30h-7.65v7.35h7.65v7.36h15.01v-44.71h15.01v-7.64h-45.03"/><path d="m3468.4 1602.1v15h-30.02v14.99h7.65v7.36h7.36v7.64h7.65v7.36h22.37v-29.71h7.64v-7.64h-7.64v-15zm-15.01 22.64h15.01v14.71h-7.36v-7.36h-7.65v-7.35"/><path d="m3506.1 1602.1v7.64h7.37v7.36h7.64v22.35h-7.64v7.64h-7.37v7.36h15.01v-7.36h7.37v-7.64h7.64v-22.35h-7.64v-7.36h-7.37v-7.64h-15.01"/></g></g></g></svg>
