<?xml version="1.0" encoding="UTF-8" standalone="no"?>
<!-- Created with Inkscape (http://www.inkscape.org/) -->
<svg xmlns:rdf="http://www.w3.org/1999/02/22-rdf-syntax-ns#" xmlns="http://www.w3.org/2000/svg" height="69.633" width="228.79" version="1.1" xmlns:cc="http://creativecommons.org/ns#" xmlns:dc="http://purl.org/dc/elements/1.1/" viewBox="0 0 60.533282 18.423631">
 <metadata>
  <rdf:RDF>
   <cc:Work rdf:about="">
    <dc:format>image/svg+xml</dc:format>
    <dc:type rdf:resource="http://purl.org/dc/dcmitype/StillImage"/>
    <dc:title/>
   </cc:Work>
  </rdf:RDF>
 </metadata>
 <g transform="translate(-33.336 -222.01)">
  <g transform="matrix(1.122 0 0 1.122 60.281 -39.578)">
   <g aria-label="REPEATER" transform="matrix(.26791 0 0 .26791 -93.528 223.1)" fill="#8f8">
    <g transform="translate(-53.349 -65.353)">
     <path d="m442.93 127.58-8.8021-24.736h-14.741v61.292h14.741l8.8021-24.736z" fill-rule="evenodd" stroke="#000" stroke-width=".88021px" fill="#000"/>
     <g fill-opacity=".94118" fill="#f55" transform="matrix(0 -3.7327 3.7327 0 -514.22 315.21)">
      <g aria-label="FINESSE" transform="matrix(.26791 0 0 .26791 -44.126 240)">
       <path d="m319.27 45.84v-6.9132h6.9132v0.9876h-4.938v1.9752h3.9504v0.9876h-3.9504v2.9628z"/>
       <path d="m328.16 45.84v-0.9876h1.9752v-4.938h-1.9752v-0.9876h5.9256v0.9876h-1.9752v4.938h1.9752v0.9876z"/>
       <path d="m335.07 45.84v-6.9132h1.9752v0.9876h0.9876v0.9876h0.9876v0.9876h0.9876v-2.9628h1.9752v6.9132h-1.9752v-1.9752h-0.9876v-0.9876h-0.9876v-0.9876h-0.9876v3.9504z"/>
       <path d="m342.97 45.84v-6.9132h6.9132v0.9876h-4.938v1.9752h3.9504v0.9876h-3.9504v1.9752h4.938v0.9876z"/>
       <path d="m351.86 45.84v-0.9876h-0.9876v-0.9876h1.9752v0.9876h2.9628v-1.9752h-3.9504v-0.9876h-0.9876v-1.9752h0.9876v-0.9876h4.938v0.9876h0.9876v0.9876h-1.9752v-0.9876h-2.9628v1.9752h3.9504v0.9876h0.9876v1.9752h-0.9876v0.9876z"/>
       <path d="m359.76 45.84v-0.9876h-0.9876v-0.9876h1.9752v0.9876h2.9628v-1.9752h-3.9504v-0.9876h-0.9876v-1.9752h0.9876v-0.9876h4.938v0.9876h0.9876v0.9876h-1.9752v-0.9876h-2.9628v1.9752h3.9504v0.9876h0.9876v1.9752h-0.9876v0.9876z"/>
       <path d="m366.67 45.84v-6.9132h6.9132v0.9876h-4.938v1.9752h3.9504v0.9876h-3.9504v1.9752h4.938v0.9876z"/>
      </g>
      <g aria-label="LIGHT" transform="matrix(.26791 0 0 .26791 -42.142 242.39)">
       <path d="m320.26 45.84v-6.9132h1.9752v5.9256h3.9504v0.9876z"/>
       <path d="m328.16 45.84v-0.9876h1.9752v-4.938h-1.9752v-0.9876h5.9256v0.9876h-1.9752v4.938h1.9752v0.9876z"/>
       <path d="m337.04 45.84v-0.9876h-0.9876v-0.9876h-0.9876v-2.9628h0.9876v-0.9876h0.9876v-0.9876h4.938v0.9876h-3.9504v0.9876h-0.9876v2.9628h0.9876v0.9876h1.9752v-1.9752h-0.9876v-0.9876h2.9628v3.9504z"/>
       <path d="m342.97 45.84v-6.9132h1.9752v2.9628h2.9628v-2.9628h1.9752v6.9132h-1.9752v-2.9628h-2.9628v2.9628z"/>
       <path d="m353.83 45.84v-5.9256h-1.9752v-0.9876h5.9256v0.9876h-1.9752v5.9256z"/>
      </g>
     </g>
     <g transform="matrix(0 -2.4267 3.2932 0 -327.55 149.73)">
      <path d="m2.8187 252.85h7.747v2.7592h-7.7473z" fill="#000"/>
     </g>
     <path d="m442.93 127.58h71.264v11.819h-71.264z" fill="#000"/>
     <g fill="#f55">
      <g>
       <g aria-label="+6 TO HIT" transform="translate(121.99 90.616)">
        <path d="m322.23 44.852v-1.9752h-1.9752v-0.9876h1.9752v-1.9752h1.9752v1.9752h1.9752v0.9876h-1.9752v1.9752z"/>
        <path d="m328.16 45.84v-0.9876h-0.9876v-3.9504h0.9876v-0.9876h0.9876v-0.9876h3.9504v0.9876h-2.9628v0.9876h-0.9876v0.9876h3.9504v0.9876h0.9876v1.9752h-0.9876v0.9876zm0.9876-0.9876h2.9628v-1.9752h-2.9628z"/>
        <path d="m345.93 45.84v-5.9256h-1.9752v-0.9876h5.9256v0.9876h-1.9752v5.9256z"/>
        <path d="m351.86 45.84v-0.9876h-0.9876v-4.938h0.9876v-0.9876h4.938v0.9876h0.9876v4.938h-0.9876v0.9876zm0.9876-0.9876h2.9628v-4.938h-2.9628z"/>
        <path d="m366.67 45.84v-6.9132h1.9752v2.9628h2.9628v-2.9628h1.9752v6.9132h-1.9752v-2.9628h-2.9628v2.9628z"/>
        <path d="m375.56 45.84v-0.9876h1.9752v-4.938h-1.9752v-0.9876h5.9256v0.9876h-1.9752v4.938h1.9752v0.9876z"/>
        <path d="m385.44 45.84v-5.9256h-1.9752v-0.9876h5.9256v0.9876h-1.9752v5.9256z"/>
       </g>
       <g aria-label="ANTIMATTER" transform="translate(-58.695 87.945)">
        <path d="m371.51 46.827v-6.584h1.3168v-1.3168h1.3168v-1.3168h3.9504v1.3168h1.3168v1.3168h1.3168v6.584h-2.6336v-2.6336h-3.9504v2.6336zm2.6336-3.9504h3.9504v-2.6336h-1.3168v-1.3168h-1.3168v1.3168h-1.3168z"/>
        <path d="m382.05 46.827v-9.2176h2.6336v1.3168h1.3168v1.3168h1.3168v1.3168h1.3168v-3.9504h2.6336v9.2176h-2.6336v-2.6336h-1.3168v-1.3168h-1.3168v-1.3168h-1.3168v5.2672z"/>
        <path d="m396.53 46.827v-7.9008h-2.6336v-1.3168h7.9008v1.3168h-2.6336v7.9008z"/>
        <path d="m404.43 46.827v-1.3168h2.6336v-6.584h-2.6336v-1.3168h7.9008v1.3168h-2.6336v6.584h2.6336v1.3168z"/>
        <path d="m413.65 46.827v-9.2176h2.6336v1.3168h1.3168v1.3168h1.3168v-1.3168h1.3168v-1.3168h2.6336v9.2176h-2.6336v-5.2672h-1.3168v2.6336h-1.3168v-2.6336h-1.3168v5.2672z"/>
        <path d="m424.18 46.827v-6.584h1.3168v-1.3168h1.3168v-1.3168h3.9504v1.3168h1.3168v1.3168h1.3168v6.584h-2.6336v-2.6336h-3.9504v2.6336zm2.6336-3.9504h3.9504v-2.6336h-1.3168v-1.3168h-1.3168v1.3168h-1.3168z"/>
        <path d="m438.67 46.827v-7.9008h-2.6336v-1.3168h7.9008v1.3168h-2.6336v7.9008z"/>
        <path d="m449.2 46.827v-7.9008h-2.6336v-1.3168h7.9008v1.3168h-2.6336v7.9008z"/>
        <path d="m455.79 46.827v-9.2176h9.2176v1.3168h-6.584v2.6336h5.2672v1.3168h-5.2672v2.6336h6.584v1.3168z"/>
        <path d="m466.32 46.827v-9.2176h7.9008v1.3168h1.3168v3.9504h-2.6336v1.3168h1.3168v1.3168h1.3168v1.3168h-3.9504v-1.3168h-1.3168v-1.3168h-1.3168v2.6336zm2.6336-3.9504h2.6336v-1.3168h1.3168v-2.6336h-3.9504z"/>
       </g>
       <g aria-label="DAGGER," transform="translate(-58.695 75.854)">
        <path d="m403.11 46.827v-9.2176h6.584v1.3168h1.3168v1.3168h1.3168v3.9504h-1.3168v1.3168h-1.3168v1.3168zm2.6336-1.3168h2.6336v-1.3168h1.3168v-3.9504h-1.3168v-1.3168h-2.6336z"/>
        <path d="m413.65 46.827v-6.584h1.3168v-1.3168h1.3168v-1.3168h3.9504v1.3168h1.3168v1.3168h1.3168v6.584h-2.6336v-2.6336h-3.9504v2.6336zm2.6336-3.9504h3.9504v-2.6336h-1.3168v-1.3168h-1.3168v1.3168h-1.3168z"/>
        <path d="m426.82 46.827v-1.3168h-1.3168v-1.3168h-1.3168v-3.9504h1.3168v-1.3168h1.3168v-1.3168h6.584v1.3168h-5.2672v1.3168h-1.3168v3.9504h1.3168v1.3168h2.6336v-2.6336h-1.3168v-1.3168h3.9504v5.2672z"/>
        <path d="m437.35 46.827v-1.3168h-1.3168v-1.3168h-1.3168v-3.9504h1.3168v-1.3168h1.3168v-1.3168h6.584v1.3168h-5.2672v1.3168h-1.3168v3.9504h1.3168v1.3168h2.6336v-2.6336h-1.3168v-1.3168h3.9504v5.2672z"/>
        <path d="m445.25 46.827v-9.2176h9.2176v1.3168h-6.584v2.6336h5.2672v1.3168h-5.2672v2.6336h6.584v1.3168z"/>
        <path d="m455.79 46.827v-9.2176h7.9008v1.3168h1.3168v3.9504h-2.6336v1.3168h1.3168v1.3168h1.3168v1.3168h-3.9504v-1.3168h-1.3168v-1.3168h-1.3168v2.6336zm2.6336-3.9504h2.6336v-1.3168h1.3168v-2.6336h-3.9504z"/>
        <path d="m467.64 48.144v-1.3168h1.3168v-2.6336h2.6336v2.6336h-1.3168v1.3168z"/>
       </g>
      </g>
      <g transform="matrix(3.7327 0 0 3.7327 270.8 -800.72)">
       <g aria-label="1d4 NECROTIC" transform="matrix(.26791 0 0 .26791 -106.7 241.14)">
        <path d="m451.48 45.84v-0.9876h1.9752v-3.9504h-0.9876v-0.9876h0.9876v-0.9876h1.9752v5.9256h1.9752v0.9876z"/>
        <path d="m459.38 45.84v-0.9876h-0.9876v-2.9628h0.9876v-0.9876h3.9504v-1.9752h1.9752v6.9132zm0.9876-0.9876h2.9628v-2.9628h-2.9628z"/>
        <path d="m470.25 45.84v-1.9752h-3.9504v-1.9752h0.9876v-0.9876h0.9876v-0.9876h0.9876v-0.9876h2.9628v3.9504h0.9876v0.9876h-0.9876v1.9752zm-1.9752-2.9628h1.9752v-1.9752h-0.9876v0.9876h-0.9876z"/>
        <path d="m482.1 45.84v-6.9132h1.9752v0.9876h0.9876v0.9876h0.9876v0.9876h0.9876v-2.9628h1.9752v6.9132h-1.9752v-1.9752h-0.9876v-0.9876h-0.9876v-0.9876h-0.9876v3.9504z"/>
        <path d="m490 45.84v-6.9132h6.9132v0.9876h-4.938v1.9752h3.9504v0.9876h-3.9504v1.9752h4.938v0.9876z"/>
        <path d="m499.88 45.84v-0.9876h-0.9876v-0.9876h-0.9876v-2.9628h0.9876v-0.9876h0.9876v-0.9876h3.9504v0.9876h0.9876v0.9876h-1.9752v-0.9876h-1.9752v0.9876h-0.9876v2.9628h0.9876v0.9876h1.9752v-0.9876h1.9752v0.9876h-0.9876v0.9876z"/>
        <path d="m505.8 45.84v-6.9132h5.9256v0.9876h0.9876v2.9628h-1.9752v0.9876h0.9876v0.9876h0.9876v0.9876h-2.9628v-0.9876h-0.9876v-0.9876h-0.9876v1.9752zm1.9752-2.9628h1.9752v-0.9876h0.9876v-1.9752h-2.9628z"/>
        <path d="m514.69 45.84v-0.9876h-0.9876v-4.938h0.9876v-0.9876h4.938v0.9876h0.9876v4.938h-0.9876v0.9876zm0.9876-0.9876h2.9628v-4.938h-2.9628z"/>
        <path d="m524.57 45.84v-5.9256h-1.9752v-0.9876h5.9256v0.9876h-1.9752v5.9256z"/>
        <path d="m530.49 45.84v-0.9876h1.9752v-4.938h-1.9752v-0.9876h5.9256v0.9876h-1.9752v4.938h1.9752v0.9876z"/>
        <path d="m539.38 45.84v-0.9876h-0.9876v-0.9876h-0.9876v-2.9628h0.9876v-0.9876h0.9876v-0.9876h3.9504v0.9876h0.9876v0.9876h-1.9752v-0.9876h-1.9752v0.9876h-0.9876v2.9628h0.9876v0.9876h1.9752v-0.9876h1.9752v0.9876h-0.9876v0.9876z"/>
       </g>
       <g transform="translate(.52917 -3.4015)">
        <g aria-label="DAMAGE" transform="matrix(.26791 0 0 .26791 -107.23 246.91)" fill="#f55">
         <path d="m497.9 45.84v-6.9132h4.938v0.9876h0.9876v0.9876h0.9876v2.9628h-0.9876v0.9876h-0.9876v0.9876zm1.9752-0.9876h1.9752v-0.9876h0.9876v-2.9628h-0.9876v-0.9876h-1.9752z"/>
         <path d="m505.8 45.84v-4.938h0.9876v-0.9876h0.9876v-0.9876h2.9628v0.9876h0.9876v0.9876h0.9876v4.938h-1.9752v-1.9752h-2.9628v1.9752zm1.9752-2.9628h2.9628v-1.9752h-0.9876v-0.9876h-0.9876v0.9876h-0.9876z"/>
         <path d="m513.7 45.84v-6.9132h1.9752v0.9876h0.9876v0.9876h0.9876v-0.9876h0.98759v-0.9876h1.9752v6.9132h-1.9752v-3.9504h-0.98759v1.9752h-0.9876v-1.9752h-0.9876v3.9504z"/>
         <path d="m521.6 45.84v-4.938h0.9876v-0.9876h0.9876v-0.9876h2.9628v0.9876h0.9876v0.9876h0.9876v4.938h-1.9752v-1.9752h-2.9628v1.9752zm1.9752-2.9628h2.9628v-1.9752h-0.9876v-0.9876h-0.9876v0.9876h-0.9876z"/>
         <path d="m531.48 45.84v-0.9876h-0.9876v-0.9876h-0.9876v-2.9628h0.9876v-0.9876h0.9876v-0.9876h4.938v0.9876h-3.9504v0.9876h-0.9876v2.9628h0.9876v0.9876h1.9752v-1.9752h-0.9876v-0.9876h2.9628v3.9504z"/>
         <path d="m537.4 45.84v-6.9132h6.9132v0.9876h-4.938v1.9752h3.9504v0.9876h-3.9504v1.9752h4.938v0.9876z"/>
        </g>
       </g>
      </g>
     </g>
    </g>
   </g>
  </g>
 </g>
</svg>
