<?xml version="1.0" encoding="UTF-8" standalone="no"?>
<!-- Created with Inkscape (http://www.inkscape.org/) -->
<svg xmlns:rdf="http://www.w3.org/1999/02/22-rdf-syntax-ns#" xmlns="http://www.w3.org/2000/svg" height="105.78" width="178.83" version="1.1" xmlns:cc="http://creativecommons.org/ns#" xmlns:dc="http://purl.org/dc/elements/1.1/" viewBox="0 0 47.31502 27.98881">
 <metadata>
  <rdf:RDF>
   <cc:Work rdf:about="">
    <dc:format>image/svg+xml</dc:format>
    <dc:type rdf:resource="http://purl.org/dc/dcmitype/StillImage"/>
    <dc:title/>
   </cc:Work>
  </rdf:RDF>
 </metadata>
 <g transform="translate(-42.488 -216.86)">
  <g transform="matrix(1.122 0 0 1.122 60.281 -39.578)">
   <g>
    <path d="m199.19-115.01h3.7194v2.7592h-3.7194z" transform="rotate(121.02)"/>
    <path d="m-6.4374 228.55h32.749v3.3548h-32.749z"/>
    <g aria-label="(RANGE 60/180)" transform="matrix(.26791 0 0 .26791 -91.074 218.98)" fill="#8f8">
     <path d="m323.22 45.84v-0.9876h-0.9876v-0.9876h-0.9876v-2.9628h0.9876v-0.9876h0.9876v-0.9876h1.9752v0.9876h-0.9876v0.9876h-0.9876v2.9628h0.9876v0.9876h0.9876v0.9876z"/>
     <path d="m327.17 45.84v-6.9132h5.9256v0.9876h0.9876v2.9628h-1.9752v0.9876h0.9876v0.9876h0.9876v0.9876h-2.9628v-0.9876h-0.98759v-0.9876h-0.9876v1.9752zm1.9752-2.9628h1.9752v-0.9876h0.9876v-1.9752h-2.9628z"/>
     <path d="m335.07 45.84v-4.938h0.9876v-0.9876h0.9876v-0.9876h2.9628v0.9876h0.9876v0.9876h0.9876v4.938h-1.9752v-1.9752h-2.9628v1.9752zm1.9752-2.9628h2.9628v-1.9752h-0.9876v-0.9876h-0.9876v0.9876h-0.9876z"/>
     <path d="m342.97 45.84v-6.9132h1.9752v0.9876h0.9876v0.9876h0.9876v0.9876h0.9876v-2.9628h1.9752v6.9132h-1.9752v-1.9752h-0.9876v-0.9876h-0.9876v-0.9876h-0.9876v3.9504z"/>
     <path d="m352.85 45.84v-0.9876h-0.9876v-0.9876h-0.9876v-2.9628h0.9876v-0.9876h0.9876v-0.9876h4.938v0.9876h-3.9504v0.9876h-0.9876v2.9628h0.9876v0.9876h1.9752v-1.9752h-0.9876v-0.9876h2.9628v3.9504z"/>
     <path d="m358.77 45.84v-6.9132h6.9132v0.9876h-4.938v1.9752h3.9504v0.9876h-3.9504v1.9752h4.938v0.9876z"/>
     <path d="m375.56 45.84v-0.9876h-0.9876v-3.9504h0.9876v-0.9876h0.9876v-0.9876h3.9504v0.9876h-2.9628v0.9876h-0.9876v0.9876h3.9504v0.9876h0.9876v1.9752h-0.9876v0.9876zm0.9876-0.9876h2.9628v-1.9752h-2.9628z"/>
     <path d="m384.45 45.84v-0.9876h-0.9876v-0.9876h-0.9876v-2.9628h0.9876v-0.9876h0.9876v-0.9876h2.9628v0.9876h0.9876v0.9876h0.9876v2.9628h-0.9876v0.9876h-0.9876v0.9876zm0.9876-0.9876h1.9752v-3.9504h-0.9876v-0.9876h-1.9752v3.9504h0.9876z"/>
     <path d="m397.29 38.927v0.9876h-0.9876v-0.9876zm-1.9752 0.9876h0.9876v0.9876h-0.9876zm-0.9876 0.9876h0.9876v0.9876h-0.9876zm-0.98759 0.9876h0.98759v0.9876h-0.98759zm-0.9876 0.9876h0.9876v0.9876h-0.9876zm-0.9876 0.9876h0.9876v0.9876h-0.9876zm-0.9876 0.9876h0.9876v0.9876h-0.9876z"/>
     <path d="m399.26 45.84v-0.9876h1.9752v-3.9504h-0.9876v-0.9876h0.9876v-0.9876h1.9752v5.9256h1.9752v0.9876z"/>
     <path d="m407.16 45.84v-0.9876h-0.9876v-1.9752h0.9876v-0.9876h-0.9876v-1.9752h0.9876v-0.9876h3.9504v0.9876h0.9876v1.9752h-0.9876v0.9876h1.9752v1.9752h-0.9876v0.9876zm1.9752-3.9504h1.9752v-1.9752h-2.9628v0.9876h0.9876zm-1.9752 2.9628h3.9504v-0.9876h-1.9752v-0.9876h-1.9752z"/>
     <path d="m416.05 45.84v-0.9876h-0.9876v-0.9876h-0.9876v-2.9628h0.9876v-0.9876h0.9876v-0.9876h2.9628v0.9876h0.9876v0.9876h0.9876v2.9628h-0.9876v0.9876h-0.9876v0.9876zm0.9876-0.9876h1.9752v-3.9504h-0.9876v-0.9876h-1.9752v3.9504h0.9876z"/>
     <path d="m422.97 45.84v-0.9876h0.9876v-0.9876h0.9876v-2.9628h-0.9876v-0.9876h-0.9876v-0.9876h1.9752v0.9876h0.9876v0.9876h0.9876v2.9628h-0.9876v0.9876h-0.9876v0.9876z"/>
    </g>
    <path d="m-220.39 122.51h19.388v2.7592h-19.388z" transform="rotate(-60)"/>
    <g aria-label="RADIANT" transform="matrix(.13395 -.23201 .23201 .13395 -54.298 319.11)" fill="#8f8">
     <path d="m319.27 45.84v-6.9132h5.9256v0.9876h0.9876v2.9628h-1.9752v0.9876h0.9876v0.9876h0.9876v0.9876h-2.9628v-0.9876h-0.9876v-0.9876h-0.9876v1.9752zm1.9752-2.9628h1.9752v-0.9876h0.9876v-1.9752h-2.9628z"/>
     <path d="m327.17 45.84v-4.938h0.9876v-0.9876h0.9876v-0.9876h2.9628v0.9876h0.9876v0.9876h0.9876v4.938h-1.9752v-1.9752h-2.9628v1.9752zm1.9752-2.9628h2.9628v-1.9752h-0.9876v-0.9876h-0.98759v0.9876h-0.9876z"/>
     <path d="m335.07 45.84v-6.9132h4.938v0.9876h0.9876v0.9876h0.9876v2.9628h-0.9876v0.9876h-0.9876v0.9876zm1.9752-0.9876h1.9752v-0.9876h0.9876v-2.9628h-0.9876v-0.9876h-1.9752z"/>
     <path d="m343.96 45.84v-0.9876h1.9752v-4.938h-1.9752v-0.9876h5.9256v0.9876h-1.9752v4.938h1.9752v0.9876z"/>
     <path d="m350.87 45.84v-4.938h0.9876v-0.9876h0.9876v-0.9876h2.9628v0.9876h0.9876v0.9876h0.9876v4.938h-1.9752v-1.9752h-2.9628v1.9752zm1.9752-2.9628h2.9628v-1.9752h-0.9876v-0.9876h-0.9876v0.9876h-0.9876z"/>
     <path d="m358.77 45.84v-6.9132h1.9752v0.9876h0.9876v0.9876h0.9876v0.9876h0.9876v-2.9628h1.9752v6.9132h-1.9752v-1.9752h-0.9876v-0.9876h-0.9876v-0.9876h-0.9876v3.9504z"/>
     <path d="m369.64 45.84v-5.9256h-1.9752v-0.9876h5.9256v0.9876h-1.9752v5.9256z"/>
    </g>
    <path d="m-9.4592 231.31h35.771v5.9248h-35.771z"/>
    <path d="m-224.27 111.17h19.388v7.3894h-19.388z" transform="rotate(-60)"/>
    <g aria-label="DAMAGE 2d6" transform="matrix(.13395 -.23201 .23201 .13395 -71.814 327.17)" fill="#8f8">
     <path d="m366.12 45.84v-6.9132h4.938v0.9876h0.9876v0.9876h0.9876v2.9628h-0.9876v0.9876h-0.9876v0.9876zm1.9752-0.9876h1.9752v-0.9876h0.9876v-2.9628h-0.9876v-0.9876h-1.9752z"/>
     <path d="m374.02 45.84v-4.938h0.9876v-0.9876h0.9876v-0.9876h2.9628v0.9876h0.9876v0.9876h0.9876v4.938h-1.9752v-1.9752h-2.9628v1.9752zm1.9752-2.9628h2.9628v-1.9752h-0.9876v-0.9876h-0.9876v0.9876h-0.9876z"/>
     <path d="m381.92 45.84v-6.9132h1.9752v0.9876h0.9876v0.9876h0.9876v-0.9876h0.9876v-0.9876h1.9752v6.9132h-1.9752v-3.9504h-0.9876v1.9752h-0.9876v-1.9752h-0.9876v3.9504z"/>
     <path d="m389.82 45.84v-4.938h0.9876v-0.9876h0.9876v-0.9876h2.9628v0.9876h0.9876v0.9876h0.9876v4.938h-1.9752v-1.9752h-2.9628v1.9752zm1.9752-2.9628h2.9628v-1.9752h-0.9876v-0.9876h-0.9876v0.9876h-0.9876z"/>
     <path d="m399.7 45.84v-0.9876h-0.9876v-0.9876h-0.9876v-2.9628h0.9876v-0.9876h0.9876v-0.9876h4.938v0.9876h-3.9504v0.9876h-0.9876v2.9628h0.9876v0.9876h1.9752v-1.9752h-0.9876v-0.9876h2.9628v3.9504z"/>
     <path d="m405.62 45.84v-6.9132h6.9132v0.9876h-4.938v1.9752h3.9504v0.9876h-3.9504v1.9752h4.938v0.9876z"/>
     <path d="m377.97 61.658v-1.9752h0.9876v-0.9876h0.9876v-0.9876h1.9752v-0.9876h0.9876v-0.9876h-2.9628v0.9876h-1.9752v-0.9876h0.9876v-0.9876h4.938v0.9876h0.9876v1.9752h-0.9876v0.9876h-0.9876v0.9876h-1.9752v0.9876h3.9504v0.9876z"/>
     <path d="m386.86 61.658v-0.9876h-0.9876v-2.9628h0.9876v-0.9876h3.9504v-1.9752h1.9752v6.9132zm0.9876-0.9876h2.9628v-2.9628h-2.9628z"/>
     <path d="m394.76 61.658v-0.9876h-0.9876v-3.9504h0.9876v-0.9876h0.9876v-0.9876h3.9504v0.9876h-2.9628v0.9876h-0.9876v0.9876h3.9504v0.9876h0.9876v1.9752h-0.9876v0.9876zm0.9876-0.9876h2.9628v-1.9752h-2.9628z"/>
    </g>
    <g aria-label="REPEATER" transform="matrix(.26791 0 0 .26791 -93.528 223.1)" fill="#8f8">
     <path d="m319.27 48.803v-13.827h11.851v1.9752h1.9752v5.9256h-3.9504v1.9752h1.9752v1.9752h1.9752v1.9752h-5.9256v-1.9752h-1.9752v-1.9752h-1.9752v3.9504zm3.9504-5.9256h3.9504v-1.9752h1.9752v-3.9504h-5.9256z"/>
     <path d="m335.07 48.803v-13.827h13.826v1.9752h-9.876v3.9504h7.9008v1.9752h-7.9008v3.9504h9.876v1.9752z"/>
     <path d="m350.87 48.803v-13.827h11.851v1.9752h1.9752v5.9256h-1.9752v1.9752h-7.9008v3.9504zm3.9504-5.9256h5.9256v-5.9256h-5.9256z"/>
     <path d="m366.67 48.803v-13.827h13.826v1.9752h-9.876v3.9504h7.9008v1.9752h-7.9008v3.9504h9.876v1.9752z"/>
     <path d="m382.47 48.803v-9.876h1.9752v-1.9752h1.9752v-1.9752h5.9256v1.9752h1.9752v1.9752h1.9752v9.876h-3.9504v-3.9504h-5.9256v3.9504zm3.9504-5.9256h5.9256v-3.9504h-1.9752v-1.9752h-1.9752v1.9752h-1.9752z"/>
     <path d="m404.2 48.803v-11.852h-3.9504v-1.9752h11.851v1.9752h-3.9504v11.851z"/>
     <path d="m414.08 48.803v-13.827h13.826v1.9752h-9.876v3.9504h7.9008v1.9752h-7.9008v3.9504h9.876v1.9752z"/>
     <path d="m429.88 48.803v-13.827h11.851v1.9752h1.9752v5.9256h-3.9504v1.9752h1.9752v1.9752h1.9752v1.9752h-5.9256v-1.9752h-1.9752v-1.9752h-1.9752v3.9504zm3.9504-5.9256h3.9504v-1.9752h1.9752v-3.9504h-5.9256z"/>
    </g>
   </g>
   <g transform="translate(-12.277 -2.1049)">
    <path d="m2.8187 252.85h7.747v2.7592h-7.7473z"/>
   </g>
   <g>
    <path d="m6.9241 236.71h19.388v2.7592h-19.388z"/>
    <g aria-label="+6 TO HIT" transform="matrix(.26791 0 0 .26791 -78.44 226.6)" fill="#8f8">
     <path d="m322.23 44.852v-1.9752h-1.9752v-0.9876h1.9752v-1.9752h1.9752v1.9752h1.9752v0.9876h-1.9752v1.9752z"/>
     <path d="m328.16 45.84v-0.9876h-0.9876v-3.9504h0.9876v-0.9876h0.9876v-0.9876h3.9504v0.9876h-2.9628v0.9876h-0.9876v0.9876h3.9504v0.9876h0.9876v1.9752h-0.9876v0.9876zm0.9876-0.9876h2.9628v-1.9752h-2.9628z"/>
     <path d="m345.93 45.84v-5.9256h-1.9752v-0.9876h5.9256v0.9876h-1.9752v5.9256z"/>
     <path d="m351.86 45.84v-0.9876h-0.9876v-4.938h0.9876v-0.9876h4.938v0.9876h0.9876v4.938h-0.9876v0.9876zm0.9876-0.9876h2.9628v-4.938h-2.9628z"/>
     <path d="m366.67 45.84v-6.9132h1.9752v2.9628h2.9628v-2.9628h1.9752v6.9132h-1.9752v-2.9628h-2.9628v2.9628z"/>
     <path d="m375.56 45.84v-0.9876h1.9752v-4.938h-1.9752v-0.9876h5.9256v0.9876h-1.9752v4.938h1.9752v0.9876z"/>
     <path d="m385.44 45.84v-5.9256h-1.9752v-0.9876h5.9256v0.9876h-1.9752v5.9256z"/>
    </g>
    <path d="m-2.9712 236.71h3.4171v4.0098h-3.4171z"/>
   </g>
  </g>
 </g>
</svg>
